<?xml version="1.0" encoding="utf-8"?>
<!-- Generator: Adobe Illustrator 23.0.3, SVG Export Plug-In . SVG Version: 6.00 Build 0)  -->
<svg version="1.1" id="Layer_1" xmlns="http://www.w3.org/2000/svg" xmlns:xlink="http://www.w3.org/1999/xlink" x="0px" y="0px"
	 viewBox="0 0 1920 3592" style="enable-background:new 0 0 1920 3592;" xml:space="preserve">
<style type="text/css">
	.st0{fill:#00002A;}
	.st1{fill:#FF9F94;}
	.st2{fill:#FFAAB7;}
	.st3{fill:#897FFF;}
	.st4{fill:#FFA89B;}
	.st5{fill:#FFD3B1;}
	.st6{fill:#F0C6FF;}
	.st7{fill:#FFFFFF;}
	.st8{fill:#9200D4;}
	.st9{clip-path:url(#SVGID_2_);}
	.st10{clip-path:url(#SVGID_4_);}
	.st11{fill:#6000A2;}
	.st12{clip-path:url(#SVGID_6_);}
	.st13{clip-path:url(#SVGID_8_);}
	.st14{clip-path:url(#SVGID_10_);}
	.st15{fill:#1C66FF;}
	.st16{clip-path:url(#SVGID_12_);}
	.st17{fill:#A2003C;}
	.st18{clip-path:url(#SVGID_14_);}
	.st19{fill:#FF2A4C;}
	.st20{clip-path:url(#SVGID_16_);}
	.st21{clip-path:url(#SVGID_18_);}
	.st22{fill:#FF94CF;}
	.st23{fill:#945B00;}
	.st24{clip-path:url(#SVGID_20_);}
	.st25{fill:#FFA838;}
	.st26{clip-path:url(#SVGID_23_);fill:#00C67A;}
	.st27{clip-path:url(#SVGID_25_);fill:#602AFF;}
	.st28{clip-path:url(#SVGID_28_);fill:#00C67A;}
	.st29{clip-path:url(#SVGID_30_);fill:#602AFF;}
	.st30{clip-path:url(#SVGID_32_);fill:#00C67A;}
	.st31{display:none;}
	.st32{display:inline;}
	.st33{clip-path:url(#SVGID_34_);fill:#8B5CFF;}
	.st34{clip-path:url(#SVGID_36_);fill:#7807E8;}
	.st35{clip-path:url(#SVGID_38_);fill:#A999FF;}
	.st36{fill:#6407DB;}
	.st37{clip-path:url(#SVGID_40_);fill:#A999FF;}
	.st38{clip-path:url(#SVGID_42_);fill:#8B5CFF;}
	.st39{clip-path:url(#SVGID_44_);fill:#8B5CFF;}
	.st40{clip-path:url(#SVGID_46_);fill:#7807E8;}
	.st41{clip-path:url(#SVGID_48_);fill:#6407DB;}
	.st42{fill:#FFE7DB;}
	.st43{fill:#FFEBDB;}
	.st44{fill:#F9FFD6;}
	.st45{fill:#FF5565;}
	.st46{display:inline;fill:none;}
	.st47{clip-path:url(#SVGID_50_);fill:url(#SVGID_51_);}
</style>
<rect id="dark_sky" y="-0.5" class="st0" width="1920.1" height="3592.5"/>
<g id="stars">
	<circle class="st1" cx="1632.7" cy="1093.9" r="4.4"/>
	<circle class="st2" cx="1477.2" cy="1252.7" r="4.4"/>
	<circle class="st3" cx="1453.4" cy="902.5" r="4.4"/>
	<circle class="st1" cx="1698.7" cy="881" r="2.2"/>
	<circle class="st4" cx="1788.5" cy="871.9" r="2.2"/>
	<circle class="st5" cx="1415.6" cy="668.7" r="4.4"/>
	<circle class="st3" cx="1797.3" cy="1124.1" r="4.4"/>
	<circle class="st6" cx="1689.3" cy="762.7" r="2.2"/>
	<circle class="st2" cx="1274.1" cy="607.8" r="4.4"/>
	<circle class="st4" cx="1651.4" cy="744.2" r="4.4"/>
	<circle class="st2" cx="1715" cy="519.8" r="4.4"/>
	<circle class="st2" cx="1870.2" cy="633.7" r="4.4"/>
	<circle class="st3" cx="1687.6" cy="233.6" r="4.4"/>
	<circle class="st1" cx="1523" cy="203.4" r="4.4"/>
	<circle class="st5" cx="1193.5" cy="201.9" r="4.4"/>
	<circle class="st6" cx="1464.5" cy="629.3" r="2.2"/>
	<circle class="st2" cx="1560.4" cy="748.3" r="2.2"/>
	<circle class="st3" cx="1223" cy="737.5" r="2.2"/>
	<circle class="st4" cx="1175.6" cy="98.4" r="2.2"/>
	<circle class="st5" cx="1388.5" cy="11.4" r="2.2"/>
	<circle class="st6" cx="1322.9" cy="88" r="2.2"/>
	<circle class="st1" cx="1591.1" cy="193" r="2.2"/>
	<circle class="st4" cx="1508" cy="157.7" r="2.2"/>
	<circle class="st4" cx="1630.3" cy="58.1" r="4.4"/>
	<circle class="st1" cx="1107.8" cy="254.3" r="2.2"/>
	<circle class="st1" cx="1041.5" cy="199.4" r="2.2"/>
	<circle class="st6" cx="989.9" cy="306.3" r="2.2"/>
	<circle class="st6" cx="1675.2" cy="526.4" r="2.2"/>
	<circle class="st2" cx="1648.4" cy="375.9" r="2.2"/>
	<polygon class="st7" points="1766.6,555.2 1769.4,560.9 1775.7,561.9 1771.1,566.3 1772.2,572.6 1766.6,569.6 1760.9,572.6 
		1762,566.3 1757.4,561.9 1763.7,560.9 	"/>
	<polygon class="st7" points="1810.7,289.3 1813.5,295 1819.9,295.9 1815.3,300.4 1816.4,306.7 1810.7,303.7 1805.1,306.7 
		1806.1,300.4 1801.6,295.9 1807.9,295 	"/>
	<polygon class="st7" points="1570.7,588.8 1573.5,594.5 1579.8,595.4 1575.3,599.9 1576.4,606.2 1570.7,603.2 1565.1,606.2 
		1566.1,599.9 1561.6,595.4 1567.9,594.5 	"/>
	<polygon class="st7" points="1186.7,948.6 1189.5,954.3 1195.9,955.3 1191.3,959.7 1192.4,966 1186.7,963 1181.1,966 1182.1,959.7 
		1177.6,955.3 1183.9,954.3 	"/>
	<circle class="st6" cx="1542.4" cy="301.3" r="2.2"/>
	<circle class="st2" cx="1095.5" cy="1289.8" r="3.6"/>
	<circle class="st2" cx="1344.1" cy="1149.8" r="3.6"/>
	<circle class="st4" cx="1013.6" cy="1010.8" r="1.8"/>
	<circle class="st1" cx="1085.4" cy="997.7" r="1.8"/>
	<circle class="st3" cx="1180.6" cy="923.8" r="3.6"/>
	<circle class="st2" cx="1240" cy="683.9" r="3.6"/>
	<circle class="st1" cx="1124.9" cy="821.8" r="3.6"/>
	<circle class="st3" cx="990.2" cy="808.1" r="3.6"/>
	<circle class="st3" cx="827.4" cy="976" r="3.6"/>
	<circle class="st3" cx="946.1" cy="1049.2" r="1.8"/>
	<circle class="st4" cx="1456.2" cy="1554" r="1.8"/>
	<circle class="st5" cx="1290.3" cy="1637.8" r="1.8"/>
	<circle class="st1" cx="1500.8" cy="1424" r="1.8"/>
	<circle class="st6" cx="1592.5" cy="1374.4" r="1.8"/>
	<circle class="st4" cx="1615.2" cy="1216.1" r="1.8"/>
	<polygon class="st7" points="1375.5,25.5 1370.7,29.6 1371.3,36 1365.9,32.7 1360.1,35.2 1361.6,29 1357.3,24.3 1363.6,23.8 
		1366.8,18.3 1369.3,24.2 	"/>
	<polygon class="st7" points="1461.2,231.6 1456.4,235.8 1457,242.1 1451.6,238.8 1445.8,241.4 1447.2,235.2 1443,230.5 1449.3,230 
		1452.5,224.4 1455,230.3 	"/>
	<circle class="st1" cx="310.8" cy="1741" r="4.4"/>
	<path class="st6" d="M133.6,2135.7c-1.1,0.6-2.4,0.3-3-0.8s-0.3-2.4,0.8-3s2.4-0.3,3,0.8C135,2133.8,134.6,2135.1,133.6,2135.7z"/>
	<circle class="st2" cx="365.5" cy="1525.6" r="4.4"/>
	<ellipse class="st3" cx="767.5" cy="1708" rx="4.4" ry="4.4"/>
	<circle class="st1" cx="360.7" cy="1958.3" r="2.2"/>
	<circle class="st4" cx="287.7" cy="2011.3" r="2.2"/>
	<ellipse class="st5" cx="917.7" cy="1891.2" rx="4.4" ry="4.4"/>
	<circle class="st3" cx="153.3" cy="1797.6" r="4.4"/>
	<circle class="st5" cx="100.7" cy="2038.2" r="2.2"/>
	<circle class="st6" cx="428.3" cy="2055.8" r="2.2"/>
	<ellipse class="st2" cx="1070.6" cy="1872.8" rx="4.4" ry="4.4"/>
	<circle class="st4" cx="470.4" cy="2052.8" r="4.4"/>
	<circle class="st2" cx="733.6" cy="2170.4" r="4.4"/>
	<circle class="st2" cx="336.7" cy="2258.3" r="4.4"/>
	
		<ellipse transform="matrix(0.8607 -0.5091 0.5091 0.8607 -1098.3461 793.6622)" class="st3" cx="901.2" cy="2404" rx="4.4" ry="4.4"/>
	
		<ellipse transform="matrix(0.8607 -0.5091 0.5091 0.8607 -1047.5934 865.9619)" class="st1" cx="1058.7" cy="2347.4" rx="4.4" ry="4.4"/>
	<circle class="st5" cx="1344.2" cy="2183.2" r="4.4"/>
	<circle class="st6" cx="895.2" cy="1949.8" r="2.2"/>
	<circle class="st2" cx="752.5" cy="1895.1" r="2.2"/>
	<circle class="st3" cx="1049.6" cy="1734.9" r="2.2"/>
	<circle class="st4" cx="1411.7" cy="2263.7" r="2.2"/>
	<ellipse class="st5" cx="1271.2" cy="2445.9" rx="2.2" ry="2.2"/>
	<ellipse class="st6" cx="1289.7" cy="2346.5" rx="2.2" ry="2.2"/>
	
		<ellipse transform="matrix(0.8607 -0.5091 0.5091 0.8607 -1077.0647 844.6414)" class="st1" cx="1005" cy="2390.6" rx="2.2" ry="2.2"/>
	<ellipse class="st4" cx="1094.5" cy="2379.3" rx="2.2" ry="2.2"/>
	
		<ellipse transform="matrix(0.8596 -0.511 0.511 0.8596 -1145.4874 885.6746)" class="st4" cx="1038.8" cy="2527.1" rx="4.4" ry="4.4"/>
	<ellipse class="st1" cx="1392" cy="2094.8" rx="2.2" ry="2.2"/>
	<circle class="st1" cx="1476.9" cy="2109" r="2.2"/>
	<ellipse class="st6" cx="1467.8" cy="1990.6" rx="2.2" ry="2.2"/>
	<circle class="st6" cx="764.7" cy="2144.7" r="2.2"/>
	<circle class="st2" cx="863.5" cy="2261.3" r="2.2"/>
	<polygon class="st7" points="465.7,2274.1 460.4,2270.6 454.5,2272.9 456.3,2266.7 452.1,2261.8 458.5,2261.6 461.9,2256.2 
		464.1,2262.2 470.3,2263.7 465.4,2267.7 	"/>
	<polygon class="st7" points="766.7,2417.8 761.4,2414.2 755.4,2416.7 757.1,2410.5 753,2405.6 759.4,2405.3 762.8,2399.9 
		765.1,2405.8 771.2,2407.5 766.2,2411.4 	"/>
	<polygon class="st7" points="823.7,2038.2 818.4,2034.7 812.5,2037.1 814.1,2030.9 810,2026 816.5,2025.8 819.8,2020.4 
		822.1,2026.3 828.2,2027.9 823.3,2031.9 	"/>
	<circle class="st6" cx="992.6" cy="2272.6" r="2.2"/>
	<ellipse class="st2" cx="882.3" cy="1193.5" rx="3.6" ry="3.6"/>
	<ellipse class="st2" cx="737.6" cy="1439.4" rx="3.6" ry="3.6"/>
	<ellipse class="st4" cx="1093.3" cy="1393.4" rx="1.8" ry="1.8"/>
	<ellipse class="st1" cx="1037.7" cy="1440.9" rx="1.8" ry="1.8"/>
	<ellipse class="st3" cx="992.7" cy="1552.6" rx="3.6" ry="3.6"/>
	<ellipse class="st2" cx="1061.7" cy="1789.9" rx="3.6" ry="3.6"/>
	<ellipse class="st1" cx="1092.1" cy="1612.8" rx="3.6" ry="3.6"/>
	<ellipse class="st3" cx="1215.4" cy="1556.9" rx="3.6" ry="3.6"/>
	<ellipse class="st3" cx="1271.8" cy="1330.1" rx="3.6" ry="3.6"/>
	<ellipse class="st3" cx="1132.3" cy="1326.3" rx="1.8" ry="1.8"/>
	
		<ellipse transform="matrix(0.8655 -0.5009 0.5009 0.8655 -515.2598 373.4055)" class="st4" cx="437.7" cy="1146.2" rx="1.8" ry="1.8"/>
	<ellipse class="st5" cx="539.1" cy="990.4" rx="1.8" ry="1.8"/>
	
		<ellipse transform="matrix(0.8655 -0.5009 0.5009 0.8655 -579.1783 404.9599)" class="st1" cx="464.5" cy="1281" rx="1.8" ry="1.8"/>
	<ellipse transform="matrix(0.8655 -0.5009 0.5009 0.8655 -631.0905 389.6238)" class="st6" cx="410" cy="1370" rx="1.8" ry="1.8"/>
	
		<ellipse transform="matrix(0.865 -0.5017 0.5017 0.865 -780.3276 352.1943)" class="st4" cx="264.4" cy="1626.4" rx="1.8" ry="1.8"/>
	<polygon class="st7" points="1275.5,2427.2 1277.6,2421.2 1273.8,2416 1280.2,2416.1 1283.9,2411 1285.8,2417.2 1291.8,2419.1 
		1286.6,2422.7 1286.6,2429 1281.5,2425.2 	"/>
	<polygon class="st7" points="1097.8,2292 1099.9,2286 1096.2,2280.8 1102.5,2281 1106.2,2275.8 1108.1,2281.9 1114.1,2283.8 
		1108.9,2287.4 1109,2293.9 1103.9,2290 	"/>
	<circle class="st1" cx="709.8" cy="81.4" r="2.2"/>
	<circle class="st4" cx="659.8" cy="6.2" r="2.2"/>
	
		<ellipse transform="matrix(0.893 -0.4501 0.4501 0.893 -123.9022 340.5142)" class="st5" cx="654.1" cy="430.8" rx="4.4" ry="4.4"/>
	<circle class="st6" cx="609.5" cy="144.9" r="2.2"/>
	<ellipse class="st2" cx="666.3" cy="584.4" rx="4.4" ry="4.4"/>
	<circle class="st4" cx="610.9" cy="187" r="4.4"/>
	<circle class="st2" cx="382.7" cy="235.5" r="4.4"/>
	<circle class="st2" cx="411" cy="45.1" r="4.4"/>
	<ellipse class="st3" cx="142.4" cy="393.3" rx="4.4" ry="4.4"/>
	
		<ellipse transform="matrix(0.8777 -0.4792 0.4792 0.8777 -241.4562 159.8744)" class="st1" cx="192.5" cy="553" rx="4.4" ry="4.4"/>
	<circle class="st5" cx="344.9" cy="845.1" r="4.4"/>
	<circle class="st6" cx="596.5" cy="406" r="2.2"/>
	<circle class="st2" cx="656.9" cy="265.6" r="2.2"/>
	<circle class="st4" cx="261.7" cy="909.2" r="2.2"/>
	
		<ellipse transform="matrix(0.8763 -0.4817 0.4817 0.8763 -356.253 135.3106)" class="st5" cx="85.4" cy="761.5" rx="2.2" ry="2.2"/>
	
		<ellipse transform="matrix(0.8777 -0.4792 0.4792 0.8777 -353.1194 183.9322)" class="st6" cx="183.8" cy="783.8" rx="2.2" ry="2.2"/>
	
		<ellipse transform="matrix(0.8777 -0.4792 0.4792 0.8777 -219.9223 133.4529)" class="st1" cx="151.5" cy="497.6" rx="2.2" ry="2.2"/>
	
		<ellipse transform="matrix(0.8777 -0.4792 0.4792 0.8777 -262.1217 148.1002)" class="st4" cx="159.1" cy="587.6" rx="2.2" ry="2.2"/>
	
		<ellipse transform="matrix(0.8758 -0.4827 0.4827 0.8758 -252.1254 72.0335)" class="st4" cx="13.9" cy="525.9" rx="4.4" ry="4.4"/>
	<ellipse class="st1" cx="431.2" cy="896.5" rx="2.2" ry="2.2"/>
	<circle class="st1" cx="413.6" cy="980.7" r="2.2"/>
	<ellipse class="st6" cx="532.3" cy="976.4" rx="2.2" ry="2.2"/>
	<circle class="st6" cx="407.1" cy="267.6" r="2.2"/>
	<circle class="st2" cx="286.5" cy="361.6" r="2.2"/>
	<circle class="st6" cx="270" cy="490.1" r="2.2"/>
	<ellipse class="st2" cx="749.5" cy="579" rx="3.6" ry="3.6"/>
	<path class="st6" d="M1844.6,2386.2c-0.8-0.9-0.6-2.3,0.3-3.1s2.3-0.6,3.1,0.3c0.8,0.9,0.6,2.3-0.3,3.1
		C1846.7,2387.3,1845.4,2387.1,1844.6,2386.2z"/>
	<circle class="st1" cx="1600.4" cy="2534.7" r="2.2"/>
	<circle class="st4" cx="1676.1" cy="2485.6" r="2.2"/>
	<circle class="st5" cx="1768.5" cy="2320.8" r="2.2"/>
	<circle class="st6" cx="1667.1" cy="2632.8" r="2.2"/>
	<circle class="st4" cx="1649.1" cy="2671" r="4.4"/>
	<circle class="st2" cx="1888.9" cy="2620.2" r="4.4"/>
	<circle class="st2" cx="1400.6" cy="2877.5" r="2.2"/>
	<polygon class="st7" points="1851.4,2743.6 1845.9,2746.8 1846.7,2740.5 1841.9,2736.2 1848.3,2735 1850.7,2729.2 1853.8,2734.8 
		1860.2,2735.3 1855.9,2740 1857.3,2746.2 	"/>
	<path class="st6" d="M1067,2912.1c1.1-0.6,2.4-0.2,3,0.9s0.2,2.4-0.9,3s-2.4,0.2-3-0.9C1065.5,2914.1,1065.9,2912.7,1067,2912.1z"
		/>
	<circle class="st2" cx="468.2" cy="2860.3" r="4.4"/>
	<circle class="st2" cx="867.5" cy="2783.8" r="4.4"/>
	
		<ellipse transform="matrix(0.8773 -0.48 0.48 0.8773 -1220.8234 469.5157)" class="st3" cx="307.7" cy="2622.1" rx="4.4" ry="4.4"/>
	
		<ellipse transform="matrix(0.8773 -0.48 0.48 0.8773 -1265.3079 399.5312)" class="st1" cx="148.6" cy="2674.1" rx="4.4" ry="4.4"/>
	
		<ellipse transform="matrix(0.8773 -0.48 0.48 0.8773 -1238.6024 420.7762)" class="st1" cx="203.5" cy="2632.5" rx="2.2" ry="2.2"/>
	
		<ellipse transform="matrix(0.8773 -0.48 0.48 0.8773 -1253.7632 378.6815)" class="st4" cx="113.6" cy="2641.1" rx="2.2" ry="2.2"/>
	
		<ellipse transform="matrix(0.8769 -0.4807 0.4807 0.8769 -1177.9998 390.5221)" class="st4" cx="173.4" cy="2495" rx="4.4" ry="4.4"/>
	<circle class="st6" cx="436.4" cy="2885.1" r="2.2"/>
	<circle class="st2" cx="341" cy="2765.6" r="2.2"/>
	<polygon class="st7" points="738.9,2764.3 744.1,2768 750.1,2765.9 748.2,2771.9 752.2,2776.9 745.8,2777 742.2,2782.3 
		740.2,2776.3 734.1,2774.6 739.1,2770.7 	"/>
	<polygon class="st7" points="442.3,2612.1 447.4,2615.7 453.5,2613.5 451.6,2619.6 455.6,2624.6 449.1,2624.7 445.6,2630 
		443.5,2624 437.4,2622.2 442.5,2618.4 	"/>
	<circle class="st6" cx="212.2" cy="2750.7" r="2.2"/>
	<polygon class="st7" points="107.6,2728.2 105.4,2734.2 108.9,2739.4 102.6,2739.1 98.8,2744.2 97,2738.1 91.1,2735.9 96.4,2732.5 
		96.5,2726 101.5,2730 	"/>
	
		<ellipse transform="matrix(0.5239 -0.8518 0.8518 0.5239 -2040.1111 1877.6464)" class="st2" cx="659.6" cy="2763.8" rx="4.4" ry="4.4"/>
	
		<ellipse transform="matrix(0.1034 -0.9946 0.9946 0.1034 -1652.4927 3056.5613)" class="st2" cx="869.2" cy="2444.9" rx="3.6" ry="3.6"/>
	
		<ellipse transform="matrix(0.3087 -0.9512 0.9512 0.3087 -2008.5878 2114.2827)" class="st4" cx="450.2" cy="2438.9" rx="1.8" ry="1.8"/>
	
		<ellipse transform="matrix(0.3087 -0.9512 0.9512 0.3087 -2006.3347 2276.0254)" class="st1" cx="562.6" cy="2518.3" rx="1.8" ry="1.8"/>
	
		<ellipse transform="matrix(0.3087 -0.9512 0.9512 0.3087 -2088.0684 2367.3372)" class="st6" cx="584.6" cy="2620.1" rx="1.8" ry="1.8"/>
	<circle class="st5" cx="1887.5" cy="1575.2" r="4.4"/>
	<circle class="st2" cx="1746" cy="1514.3" r="4.4"/>
	<circle class="st3" cx="1694.9" cy="1644" r="2.2"/>
	<polygon class="st7" points="1658.6,1855.1 1661.4,1860.8 1667.8,1861.8 1663.2,1866.2 1664.3,1872.5 1658.6,1869.5 1653,1872.5 
		1654,1866.2 1649.5,1861.8 1655.8,1860.8 	"/>
	<circle class="st1" cx="1557.3" cy="1904.2" r="1.8"/>
	<circle class="st3" cx="1652.5" cy="1830.3" r="3.6"/>
	<circle class="st2" cx="1711.9" cy="1590.4" r="3.6"/>
	<circle class="st1" cx="1596.8" cy="1728.3" r="3.6"/>
	<circle class="st3" cx="1462.1" cy="1714.6" r="3.6"/>
	<polygon class="st7" points="1094.3,548.8 1088.8,552 1089.6,545.7 1084.8,541.4 1091.2,540.2 1093.6,534.4 1096.7,540 
		1103.1,540.5 1098.8,545.2 1100.2,551.4 	"/>
	<polygon class="st7" points="809.5,226 812.3,231.7 818.6,232.8 814,237.1 815.1,243.4 809.5,240.4 803.8,243.4 804.9,237.1 
		800.4,232.7 806.6,231.7 	"/>
	<polygon class="st7" points="512.8,73.8 515.6,79.4 522,80.4 517.4,84.8 518.6,91.1 512.8,88.1 507.2,91.1 508.2,84.8 503.7,80.3 
		510,79.4 	"/>
	<polygon class="st7" points="175.6,194.8 171,199.3 171.9,205.5 166.4,202.5 160.7,205.4 161.8,199.1 157.4,194.6 163.7,193.8 
		166.6,188 169.3,193.8 	"/>
	<polygon class="st7" points="433.4,639.1 436.2,644.8 442.6,645.8 438,650.2 439.1,656.5 433.4,653.5 427.8,656.5 428.8,650.2 
		424.3,645.8 430.6,644.8 	"/>
</g>
<g id="Layer_3">
</g>
<g id="planet_1">
	<g>
		<ellipse id="SVGID_22_" class="st8" cx="248.5" cy="345.6" rx="70.9" ry="70.9"/>
	</g>
	<g>
		<g>
			<g>
				<g>
					<g>
						<defs>
							<circle id="SVGID_1_" cx="248.5" cy="345.6" r="70.9"/>
						</defs>
						<clipPath id="SVGID_2_">
							<use xlink:href="#SVGID_1_"  style="overflow:visible;"/>
						</clipPath>
						<g class="st9">
							<path class="st8" d="M356,342.7l-0.1-5.1c0-4.1,3.4-7.5,7.5-7.3h5.3c4.1,0,7.4-3.3,7.5-7.3l-0.1-5.1c0-4.1-3.3-7.4-7.3-7.5
								l-35.7-0.1c-4.1,0-7.5-3.4-7.3-7.5l-0.1-5.1c0-4.1,3.4-7.5,7.5-7.3h15.7c4.1,0,7.4-3.3,7.5-7.3l-0.1-5.1
								c0-4.1-3.3-7.4-7.3-7.5l-119.4-0.3c-4.1,0-7.4,3.3-7.5,7.3l0.1,5.1c0,4.1,3.3,7.4,7.3,7.5l14.7,0.1c4.1,0,7.5,3.4,7.3,7.5
								l0.1,5.1c0,4.1-3.4,7.5-7.5,7.3h-1.3c-4.1,0-7.4,3.3-7.5,7.3l0.1,5.1c0,4.1,3.3,7.4,7.3,7.5l26,0.1c4.1,0,7.5,3.4,7.3,7.5
								l0.1,5.1c0,4.1-3.4,7.5-7.5,7.3h-14.2c-4.1,0-7.4,3.3-7.5,7.3l0.1,5.1c0,4.1-3.4,7.5-7.5,7.3H229c-4.1,0-7.4,3.3-7.5,7.3
								l0.1,5.1c0,4.1-3.4,7.5-7.5,7.3h-1.3c-4.1,0-7.4,3.3-7.5,7.3l0.1,5.1c0,4.1,3.3,7.4,7.3,7.5h15.7c4.1,0,7.5,3.4,7.3,7.5
								l-0.1,4.9c0,4.1,3.3,7.4,7.3,7.5l105,0.2c4.1,0,7.4-3.3,7.5-7.3l-0.1-5.1c0-4.1-3.3-7.4-7.3-7.5l-18.8,0.2
								c-4.1,0-7.5-3.4-7.3-7.5l0.1-4.9c0-4.1,3.4-7.5,7.5-7.3l30.5,0.1c4.1,0,7.4-3.3,7.5-7.3l-0.1-5.1c0-4.1-3.3-7.4-7.3-7.5
								l-11.9-0.1c-4.1,0-7.5-3.4-7.3-7.5l-0.1-5.1c0-4.1,3.4-7.5,7.5-7.3l0,0C352.7,350,356.1,346.8,356,342.7z"/>
						</g>
					</g>
				</g>
			</g>
		</g>
	</g>
	<g>
		<g>
			<g>
				<g>
					<g>
						<defs>
							<circle id="SVGID_3_" cx="248.5" cy="345.6" r="70.9"/>
						</defs>
						<clipPath id="SVGID_4_">
							<use xlink:href="#SVGID_3_"  style="overflow:visible;"/>
						</clipPath>
						<g class="st10">
							<path class="st11" d="M313.6,338.3l-0.1-5.1c0-4.1,3.4-7.5,7.5-7.3h5.3c4.1,0,7.4-3.3,7.5-7.3l-0.1-5.1
								c0-4.1-3.3-7.4-7.3-7.5l-35.7-0.1c-4.1,0-7.5-3.4-7.3-7.5l-0.1-5.1c0-4.1,3.4-7.5,7.5-7.3h15.7c4.1,0,7.4-3.3,7.5-7.3
								l-0.1-5.1c0-4.1-3.3-7.4-7.3-7.5L187,265.6c-4.1,0-7.4,3.3-7.5,7.3l0.1,5.1c0,4.1,3.3,7.4,7.3,7.5l14.7,0.1
								c4.1,0,7.5,3.4,7.3,7.5l0.1,5.1c0,4.1-3.4,7.5-7.5,7.3h-1.3c-4.1,0-7.4,3.3-7.5,7.3l0.1,5.1c0,4.1,3.3,7.4,7.3,7.5l26,0.1
								c4.1,0,7.5,3.4,7.3,7.5l0.1,5.1c0,4.1-3.4,7.5-7.5,7.3l-14.1,0.1c-4.1,0-7.4,3.3-7.5,7.3l0.1,5.1c0,4.1-3.4,7.5-7.5,7.3
								h-10.5c-4.1,0-7.4,3.3-7.5,7.3l0.1,5.1c0,4.1-3.4,7.5-7.5,7.3h-1.3c-4.1,0-7.4,3.3-7.5,7.3l0.1,5.1c0,4.1,3.3,7.4,7.3,7.5
								h15.7c4.1,0,7.5,3.4,7.3,7.5l-0.1,4.9c0,4.1,3.3,7.4,7.3,7.5l105,0.2c4.1,0,7.4-3.3,7.5-7.3l-0.1-5.1c0-4.1-3.3-7.4-7.3-7.5
								l-18.7,0.2c-4.1,0-7.5-3.4-7.3-7.5l0.1-4.9c0-4.1,3.4-7.5,7.5-7.3l30.5,0.1c4.1,0,7.4-3.3,7.5-7.3l-0.1-5.1
								c0-4.1-3.3-7.4-7.3-7.5l-11.9-0.1c-4.1,0-7.5-3.4-7.3-7.5l-0.1-5.1c0-4.1,3.4-7.5,7.5-7.3l0,0
								C310.3,345.8,313.6,342.4,313.6,338.3z"/>
						</g>
					</g>
				</g>
			</g>
		</g>
	</g>
	<g>
		<g>
			<g>
				<g>
					<g>
						<defs>
							<circle id="SVGID_5_" cx="248.5" cy="345.6" r="70.9"/>
						</defs>
						<clipPath id="SVGID_6_">
							<use xlink:href="#SVGID_5_"  style="overflow:visible;"/>
						</clipPath>
						<g class="st12">
							<path class="st8" d="M253.7,352.8l0.1,5.1c0,4.1,3.3,7.4,7.3,7.5h5.3c4.1,0,7.5,3.4,7.3,7.5l0.1,5.1c0,4.1-3.4,7.5-7.5,7.3
								l-35.7-0.1c-4.1,0-7.4,3.3-7.5,7.3l0.1,5.1c0,4.1,3.3,7.4,7.3,7.5h15.7c4.1,0,7.5,3.4,7.3,7.5l0.1,5.1c0,4.1-3.4,7.5-7.5,7.3
								l-119.5-0.2c-4.1,0-7.5-3.4-7.3-7.5l-0.1-5.1c0-4.1,3.4-7.5,7.5-7.3l14.7,0.1c4.1,0,7.4-3.3,7.5-7.3l-0.1-5.1
								c0-4.1-3.3-7.4-7.3-7.5h-1.3c-4.1,0-7.5-3.4-7.3-7.5l-0.1-5.1c0-4.1,3.4-7.5,7.5-7.3l26,0.1c4.1,0,7.4-3.3,7.5-7.3l-0.1-5.1
								c0-4.1-3.3-7.4-7.3-7.5l-14.2-0.2c-4.1,0-7.5-3.4-7.3-7.5l-0.1-5.1c0-4.1-3.3-7.4-7.3-7.5H127c-4.1,0-7.5-3.4-7.3-7.5
								l-0.1-5.1c0-4.1-3.3-7.4-7.3-7.5H111c-4.1,0-7.5-3.4-7.3-7.5l-0.1-5.1c0-4.1,3.4-7.5,7.5-7.3h15.7c4.1,0,7.4-3.3,7.5-7.3
								l0.1-4.9c0-4.1,3.4-7.5,7.5-7.3l105,0.2c4.1,0,7.5,3.4,7.3,7.5l0.1,5.1c0,4.1-3.4,7.5-7.5,7.3H228c-4.1,0-7.4,3.3-7.5,7.3
								l-0.1,4.9c0,4.1,3.3,7.4,7.3,7.5l30.5,0.1c4.1,0,7.5,3.4,7.3,7.5l0.1,5.1c0,4.1-3.4,7.5-7.5,7.3l-11.9-0.1
								c-4.1,0-7.4,3.3-7.5,7.3l0.1,5.1c0,4.1,3.3,7.4,7.3,7.5l0,0C250.4,345.3,253.7,348.6,253.7,352.8z"/>
						</g>
					</g>
				</g>
			</g>
		</g>
	</g>
	<g>
		<g>
			<g>
				<g>
					<g>
						<defs>
							<circle id="SVGID_7_" cx="248.5" cy="345.6" r="70.9"/>
						</defs>
						<clipPath id="SVGID_8_">
							<use xlink:href="#SVGID_7_"  style="overflow:visible;"/>
						</clipPath>
						<g class="st13">
							<path class="st11" d="M204.1,341l-0.1-5.1c0-4.1,3.4-7.5,7.5-7.3h5.3c4.1,0,7.4-3.3,7.5-7.3l-0.1-5.1c0-4.1-3.3-7.4-7.3-7.5
								l-35.7-0.1c-4.1,0-7.5-3.4-7.3-7.5l-0.1-5.1c0-4.1,3.4-7.5,7.5-7.3H197c4.1,0,7.4-3.3,7.5-7.3l-0.1-5.1
								c0-4.1-3.3-7.4-7.3-7.5l-119.5-0.3c-4.1,0-7.4,3.3-7.5,7.3l0.1,5.1c0,4.1,3.3,7.4,7.3,7.5l14.7,0.1c4.1,0,7.5,3.4,7.3,7.5
								l0.1,5.1c0,4.1-3.4,7.5-7.5,7.3h-1.3c-4.1,0-7.4,3.3-7.5,7.3l0.1,5.1c0,4.1,3.3,7.4,7.3,7.5l26,0.1c4.1,0,7.5,3.4,7.3,7.5
								l0.1,5.1c0,4.1-3.4,7.5-7.5,7.3h-14.2c-4.1,0.1-7.5,3.4-7.5,7.6L95,361c0,4.1-3.4,7.5-7.5,7.3H77c-4.1,0-7.4,3.3-7.5,7.3
								l0.1,5.1c0,4.1-3.4,7.5-7.5,7.3l-1.4,0.1c-4.1,0-7.4,3.3-7.5,7.3l0.1,5.1c0,4.1,3.3,7.4,7.3,7.5h15.7c4.1,0,7.5,3.4,7.3,7.5
								l-0.1,4.9c0,4.1,3.3,7.4,7.3,7.5l105,0.2c4.1,0,7.4-3.3,7.5-7.3l-0.1-5.1c0-4.1-3.3-7.4-7.3-7.5h-18.8
								c-4.1,0-7.5-3.4-7.3-7.5l0.1-4.9c0-4.1,3.4-7.5,7.5-7.3l30.5,0.1c4.1,0,7.4-3.3,7.5-7.3l-0.1-5.1c0-4.1-3.3-7.4-7.3-7.5
								l-11.9-0.1c-4.1,0-7.5-3.4-7.3-7.5l-0.1-5.1c0-4.1,3.4-7.5,7.5-7.3l0,0C200.8,348.4,204.1,345,204.1,341z"/>
						</g>
					</g>
				</g>
			</g>
		</g>
	</g>
	<g>
		<g>
			<g>
				<g>
					<g>
						<defs>
							<circle id="SVGID_9_" cx="248.5" cy="345.6" r="70.9"/>
						</defs>
						<clipPath id="SVGID_10_">
							<use xlink:href="#SVGID_9_"  style="overflow:visible;"/>
						</clipPath>
						<g class="st14">
							<path class="st15" d="M146.3,337.9l-0.1-5.1c0-4.1,3.4-7.5,7.5-7.3h5.3c4.1,0,7.4-3.3,7.5-7.3l-0.1-5.1
								c0-4.1-3.3-7.4-7.3-7.5l-35.7-0.1c-4.1,0-7.5-3.4-7.3-7.5l-0.1-5.1c0-4.1,3.4-7.5,7.5-7.3h15.7c4.1,0,7.4-3.3,7.5-7.3
								l-0.1-5.1c0-4.1-3.3-7.4-7.3-7.5l-119.5-0.3c-4.1,0-7.4,3.3-7.5,7.3l0.1,5.1c0,4.1,3.3,7.4,7.3,7.5l14.7,0.1
								c4.1,0,7.5,3.4,7.3,7.5l0.1,5.1c0,4.1-3.4,7.5-7.5,7.3H33c-4.1,0-7.4,3.3-7.5,7.3l0.1,5.1c0,4.1,3.3,7.4,7.3,7.5l25.9,0.1
								c4.1,0,7.5,3.4,7.3,7.5l0.1,5.1c0,4.1-3.4,7.5-7.5,7.3H44.5c-4.1,0-7.4,3.3-7.5,7.3l0.1,5.1c0,4.1-3.4,7.5-7.5,7.3H19.1
								c-4.1,0-7.4,3.3-7.5,7.3l0.1,5.1c0,4.1-3.4,7.5-7.5,7.3H2.9c-4.1,0-7.4,3.3-7.5,7.3l0.1,5.1c0,4.1,3.3,7.4,7.3,7.5h15.7
								c4.1,0,7.5,3.4,7.3,7.5l0.2,5c0,4.1,3.3,7.4,7.3,7.5l105,0.2c4.1,0,7.4-3.3,7.5-7.3l-0.1-5.1c0-4.1-3.3-7.4-7.3-7.5h-18.8
								c-4.1,0-7.5-3.4-7.3-7.5l0.1-4.9c0-4.1,3.4-7.5,7.5-7.3l30.5,0.1c4.1,0,7.4-3.3,7.5-7.3l-0.1-5.1c0-4.1-3.3-7.4-7.3-7.5
								l-11.9-0.1c-4.1,0-7.5-3.4-7.3-7.5l-0.1-5.1c0-4.1,3.4-7.5,7.5-7.3l0,0C143.1,345.3,146.3,342,146.3,337.9z"/>
						</g>
					</g>
				</g>
			</g>
		</g>
	</g>
</g>
<g id="planet_2">
	<g>
		<g>
			<g>
				<g>
					<g>
						<g>
							<defs>
								
									<ellipse id="SVGID_11_" transform="matrix(0.9861 -0.166 0.166 0.9861 -24.6879 286.8094)" cx="1703.5" cy="291.1" rx="34.4" ry="34.4"/>
							</defs>
							<clipPath id="SVGID_12_">
								<use xlink:href="#SVGID_11_"  style="overflow:visible;"/>
							</clipPath>
							<g class="st16">
								<path class="st17" d="M1755.6,290.3v-2.5c0.1-1.9,1.6-3.5,3.6-3.5l2.6,0.1c1.9,0.1,3.6-1.6,3.6-3.5v-2.5
									c0.1-1.9-1.6-3.6-3.5-3.6l-17.3-0.2c-1.9-0.1-3.5-1.6-3.5-3.6v-2.5c0.1-1.9,1.6-3.5,3.6-3.5l7.6,0.1
									c1.9,0.1,3.6-1.6,3.6-3.5v-2.5c0.1-1.9-1.6-3.6-3.5-3.6l-57.9-0.6c-1.9-0.1-3.6,1.6-3.6,3.5v2.5c-0.1,1.9,1.6,3.6,3.5,3.6
									l7.2,0.1c1.9,0.1,3.5,1.6,3.5,3.6v2.5c-0.1,1.9-1.6,3.5-3.6,3.5h-0.7c-1.9-0.1-3.6,1.6-3.6,3.5v2.5
									c-0.1,1.9,1.6,3.6,3.5,3.6l12.6,0.2c1.9,0.1,3.5,1.6,3.5,3.6v2.5c-0.1,1.9-1.6,3.5-3.6,3.5l-6.8-0.1
									c-1.9-0.1-3.6,1.6-3.6,3.5v2.5c-0.1,1.9-1.6,3.5-3.6,3.5l-5.1-0.1c-1.9-0.1-3.6,1.6-3.6,3.5v2.5c-0.1,1.9-1.6,3.5-3.6,3.5
									h-0.7c-1.9-0.1-3.6,1.6-3.6,3.5v2.5c-0.1,1.9,1.6,3.6,3.5,3.6l7.7,0.1c1.9,0.1,3.5,1.6,3.5,3.6v2.4
									c-0.1,1.9,1.6,3.6,3.5,3.6l50.9,0.5c1.9,0.1,3.6-1.6,3.6-3.5v-2.5c0.1-1.9-1.6-3.6-3.5-3.6l-9.1-0.2
									c-1.9-0.1-3.5-1.6-3.5-3.6v-2.4c0.1-1.9,1.6-3.5,3.6-3.5l14.9,0.2c1.9,0.1,3.6-1.6,3.6-3.5v-2.5c0.1-1.9-1.6-3.6-3.5-3.6
									l-5.7-0.1c-1.9-0.1-3.5-1.6-3.5-3.6v-2.5c0.1-1.9,1.6-3.5,3.6-3.5l0,0C1754,293.8,1755.6,292.1,1755.6,290.3z"/>
							</g>
						</g>
					</g>
				</g>
			</g>
		</g>
		<g>
			<g>
				<g>
					<g>
						<g>
							<defs>
								
									<ellipse id="SVGID_13_" transform="matrix(0.9861 -0.166 0.166 0.9861 -24.6879 286.8094)" cx="1703.5" cy="291.1" rx="34.4" ry="34.4"/>
							</defs>
							<clipPath id="SVGID_14_">
								<use xlink:href="#SVGID_13_"  style="overflow:visible;"/>
							</clipPath>
							<g class="st18">
								<path class="st19" d="M1735,288v-2.5c0.1-1.9,1.6-3.5,3.6-3.5l2.6,0.1c1.9,0.1,3.6-1.6,3.6-3.5v-2.5
									c0.1-1.9-1.6-3.6-3.5-3.6l-17.3-0.2c-1.9-0.1-3.5-1.6-3.5-3.6v-2.5c0.1-1.9,1.6-3.5,3.6-3.5l7.6,0.1
									c1.9,0.1,3.6-1.6,3.6-3.5v-2.5c0.1-1.9-1.6-3.6-3.5-3.6l-57.8-0.8c-1.9-0.1-3.6,1.6-3.6,3.5v2.5c-0.1,1.9,1.6,3.6,3.5,3.6
									l7.2,0.1c1.9,0.1,3.5,1.6,3.5,3.6v2.5c-0.1,1.9-1.6,3.5-3.6,3.5h-0.7c-1.9-0.1-3.6,1.6-3.6,3.5v2.5
									c-0.1,1.9,1.6,3.6,3.5,3.6l12.6,0.2c1.9,0.1,3.5,1.6,3.5,3.6v2.5c-0.1,1.9-1.6,3.5-3.6,3.5l-6.8-0.1
									c-1.9-0.1-3.6,1.6-3.6,3.5v2.5c-0.1,1.9-1.6,3.5-3.6,3.5l-5.1-0.1c-1.9-0.1-3.6,1.6-3.6,3.5v2.5c-0.1,1.9-1.6,3.5-3.6,3.5
									h-0.7c-1.9-0.1-3.6,1.6-3.6,3.5v2.5c-0.1,1.9,1.6,3.6,3.5,3.6l7.7,0.1c1.9,0.1,3.5,1.6,3.5,3.6v2.4
									c-0.1,1.9,1.6,3.6,3.5,3.6l50.9,0.5c1.9,0.1,3.6-1.6,3.6-3.5V324c0.1-1.9-1.6-3.6-3.5-3.6l-9.1-0.2
									c-1.9-0.1-3.5-1.6-3.5-3.6v-2.4c0.1-1.9,1.6-3.5,3.6-3.5l14.9,0.2c1.9,0.1,3.6-1.6,3.6-3.5v-2.5c0.1-1.9-1.6-3.6-3.5-3.6
									l-5.7-0.1c-1.9-0.1-3.5-1.6-3.5-3.6v-2.5c0.1-1.9,1.6-3.5,3.6-3.5l0,0C1733.4,291.5,1735.1,289.9,1735,288z"/>
							</g>
						</g>
					</g>
				</g>
			</g>
		</g>
		<g>
			<g>
				<g>
					<g>
						<g>
							<defs>
								
									<ellipse id="SVGID_15_" transform="matrix(0.9861 -0.166 0.166 0.9861 -24.6879 286.8094)" cx="1703.5" cy="291.1" rx="34.4" ry="34.4"/>
							</defs>
							<clipPath id="SVGID_16_">
								<use xlink:href="#SVGID_15_"  style="overflow:visible;"/>
							</clipPath>
							<g class="st20">
								<path class="st17" d="M1708.4,294.7v2.5c-0.1,1.9,1.6,3.6,3.5,3.6l2.6,0.1c1.9,0.1,3.5,1.6,3.5,3.6v2.5
									c-0.1,1.9-1.6,3.5-3.6,3.5l-17.3-0.2c-1.9-0.1-3.6,1.6-3.6,3.5v2.5c-0.1,1.9,1.6,3.6,3.5,3.6l7.6,0.1
									c1.9,0.1,3.5,1.6,3.5,3.6v2.5c-0.1,1.9-1.6,3.5-3.6,3.5l-57.9-0.6c-1.9-0.1-3.5-1.6-3.5-3.6v-2.5c0.1-1.9,1.6-3.5,3.6-3.5
									l7.2,0.1c1.9,0.1,3.6-1.6,3.6-3.5v-2.5c0.1-1.9-1.6-3.6-3.5-3.6h-0.7c-1.9-0.1-3.5-1.6-3.5-3.6v-2.5
									c0.1-1.9,1.6-3.5,3.6-3.5l12.6,0.2c1.9,0.1,3.6-1.6,3.6-3.5v-2.5c0.1-1.9-1.6-3.6-3.5-3.6l-6.8-0.1
									c-1.9-0.1-3.5-1.6-3.5-3.6v-2.5c0.1-1.9-1.6-3.6-3.5-3.6l-5.1-0.2c-1.9-0.1-3.5-1.6-3.5-3.6v-2.5c0.1-1.9-1.6-3.6-3.5-3.6
									h-0.7c-1.9-0.1-3.5-1.6-3.5-3.6v-2.5c0.1-1.9,1.6-3.5,3.6-3.5l7.7,0.1c1.9,0.1,3.6-1.6,3.6-3.5v-2.4
									c0.1-1.9,1.6-3.5,3.6-3.5l50.9,0.5c1.9,0.1,3.5,1.6,3.5,3.6v2.5c-0.1,1.9-1.6,3.5-3.6,3.5l-9.1-0.2
									c-1.9-0.1-3.6,1.6-3.6,3.5v2.4c-0.1,1.9,1.6,3.6,3.5,3.6l14.9,0.2c1.9,0.1,3.5,1.6,3.5,3.6v2.5c-0.1,1.9-1.6,3.5-3.6,3.5
									l-5.7-0.1c-1.9-0.1-3.6,1.6-3.6,3.5v2.5c-0.1,1.9,1.6,3.6,3.5,3.6l0,0C1706.9,291.1,1708.4,292.7,1708.4,294.7z"/>
							</g>
						</g>
					</g>
				</g>
			</g>
		</g>
		<g>
			<g>
				<g>
					<g>
						<g>
							<defs>
								
									<ellipse id="SVGID_17_" transform="matrix(0.9861 -0.166 0.166 0.9861 -24.6879 286.8094)" cx="1703.5" cy="291.1" rx="34.4" ry="34.4"/>
							</defs>
							<clipPath id="SVGID_18_">
								<use xlink:href="#SVGID_17_"  style="overflow:visible;"/>
							</clipPath>
							<g class="st21">
								<path class="st19" d="M1686.8,293.5v-2.5c0.1-1.9,1.6-3.5,3.6-3.5l2.6,0.1c1.9,0.1,3.6-1.6,3.6-3.5v-2.5
									c0.1-1.9-1.6-3.6-3.5-3.6l-17.3-0.2c-1.9-0.1-3.5-1.6-3.5-3.6v-2.5c0.1-1.9,1.6-3.5,3.6-3.5l7.6,0.1
									c1.9,0.1,3.6-1.6,3.6-3.5v-2.5c0.1-1.9-1.6-3.6-3.5-3.6l-57.9-0.6c-1.9-0.1-3.6,1.6-3.6,3.5v2.5c-0.1,1.9,1.6,3.6,3.5,3.6
									l7.2,0.1c1.9,0.1,3.5,1.6,3.5,3.6v2.5c-0.1,1.9-1.6,3.5-3.6,3.5h-0.7c-1.9-0.1-3.6,1.6-3.6,3.5v2.5
									c-0.1,1.9,1.6,3.6,3.5,3.6l12.6,0.2c1.9,0.1,3.5,1.6,3.5,3.6v2.5c-0.1,1.9-1.6,3.5-3.6,3.5l-6.8-0.1
									c-1.9-0.1-3.6,1.6-3.6,3.5v2.5c-0.1,1.9-1.6,3.5-3.6,3.5l-5.1-0.1c-1.9-0.1-3.6,1.6-3.6,3.5v2.5c-0.1,1.9-1.6,3.5-3.6,3.5
									h-0.7c-1.9-0.1-3.6,1.6-3.6,3.5v2.5c-0.1,1.9,1.6,3.6,3.5,3.6l7.7,0.1c1.9,0.1,3.5,1.6,3.5,3.6v2.4
									c-0.1,1.9,1.6,3.6,3.5,3.6l50.9,0.5c1.9,0.1,3.6-1.6,3.6-3.5v-2.5c0.1-1.9-1.6-3.6-3.5-3.6l-9.1-0.2
									c-1.9-0.1-3.5-1.6-3.5-3.6v-2.4c0.1-1.9,1.6-3.5,3.6-3.5l14.9,0.2c1.9,0.1,3.6-1.6,3.6-3.5v-2.5c0.1-1.9-1.6-3.6-3.5-3.6
									l-5.7-0.1c-1.9-0.1-3.5-1.6-3.5-3.6v-2.5c0.1-1.9,1.6-3.5,3.6-3.5l0,0C1685.1,297,1686.7,295.5,1686.8,293.5z"/>
							</g>
						</g>
					</g>
				</g>
			</g>
		</g>
	</g>
	<path class="st22" d="M1670.1,282.9c-21,2.2-35.3,6.6-35.3,11.6c0,7.3,30.6,13.3,68.4,13.3c37.8,0,68.4-5.9,68.4-13.2
		c0-5-14.1-9.3-34.9-11.6l0.8,4.1c10.5,1.9,17,4.5,17,7.3c0,5.4-23,9.9-51.3,9.9c-28.4,0-51.3-4.5-51.4-10c0-3,6.7-5.7,17.3-7.4
		L1670.1,282.9z"/>
</g>
<g id="planet_3">
	<g>
		
			<ellipse id="SVGID_26_" transform="matrix(0.9768 -0.2143 0.2143 0.9768 8.5637 354.8638)" class="st23" cx="1640.6" cy="137.9" rx="18.7" ry="18.7"/>
	</g>
	<g>
		<g>
			<g>
				<g>
					<g>
						<defs>
							
								<ellipse id="SVGID_19_" transform="matrix(0.9768 -0.2143 0.2143 0.9768 8.5637 354.8638)" cx="1640.6" cy="137.9" rx="18.7" ry="18.7"/>
						</defs>
						<clipPath id="SVGID_20_">
							<use xlink:href="#SVGID_19_"  style="overflow:visible;"/>
						</clipPath>
						<g class="st24">
							<path class="st25" d="M1600.2,153.2l-0.1,1.9c0,1.6-1.2,2.7-2.8,2.7l-1.9-0.1c-1.6,0-2.7,1.2-2.8,2.7l-0.1,1.9
								c0,1.6,1.2,2.7,2.7,2.8l13.2,0.1c1.6,0,2.7,1.2,2.7,2.8l-0.1,1.9c0,1.6-1.2,2.7-2.8,2.7l-5.8-0.1c-1.6,0-2.7,1.2-2.8,2.7
								l-0.1,1.9c0,1.6,1.2,2.7,2.7,2.8l44.3,0.4c1.6,0,2.7-1.2,2.8-2.7l0.1-1.9c0-1.6-1.2-2.7-2.7-2.8h-5.4c-1.6,0-2.7-1.2-2.7-2.8
								l0.1-1.9c0-1.6,1.2-2.7,2.8-2.7h0.4c1.6,0,2.7-1.2,2.8-2.7l0.1-1.9c0-1.6-1.2-2.7-2.7-2.8l-9.6-0.1c-1.6,0-2.7-1.2-2.7-2.8
								l0.1-1.9c0-1.6,1.2-2.7,2.8-2.7h5.2c1.6,0,2.7-1.2,2.8-2.7l0.1-1.9c0-1.6,1.2-2.7,2.8-2.7h3.9c1.6,0,2.7-1.2,2.8-2.7l0.1-1.9
								c0-1.6,1.2-2.7,2.8-2.7h0.4c1.6,0,2.7-1.2,2.8-2.7l0.1-1.9c0-1.6-1.2-2.7-2.7-2.8l-5.8-0.1c-1.6,0-2.7-1.2-2.7-2.8v-1.8
								c0-1.6-1.2-2.7-2.7-2.8l-39.3-0.2c-1.6,0-2.7,1.2-2.8,2.7l-0.1,1.9c0,1.6,1.2,2.7,2.7,2.8l6.9,0.1c1.6,0,2.7,1.2,2.7,2.8v1.8
								c0,1.6-1.2,2.7-2.8,2.7l-11.3-0.1c-1.6,0-2.7,1.2-2.8,2.7l-0.1,1.9c0,1.6,1.2,2.7,2.7,2.8l4.4,0.1c1.6,0,2.7,1.2,2.7,2.8
								l-0.1,1.9c0,1.6-1.2,2.7-2.8,2.7l0,0C1601.5,150.5,1600.3,151.7,1600.2,153.2z"/>
						</g>
					</g>
				</g>
			</g>
		</g>
	</g>
</g>
<g id="earth">
	<g>
		<g>
			<g>
				<g>
					<g>
						<defs>
							<circle id="SVGID_21_" cx="1618" cy="797" r="170.4"/>
						</defs>
						<clipPath id="SVGID_23_">
							<use xlink:href="#SVGID_21_"  style="overflow:visible;"/>
						</clipPath>
						<path class="st26" d="M1827.7,780v-12.3c-0.1-9.8,8-17.8,17.9-17.9h12.7c9.8-0.1,17.8-8,17.9-17.9v-12.3
							c-0.1-9.8-8-17.8-17.9-17.9l-86-0.1c-9.8,0.1-17.8-8-17.9-17.9v-12.3c-0.1-9.8,8-17.8,17.9-17.9h37.6
							c9.8-0.1,17.8-8,17.9-17.9v-12.3c-0.1-9.8-8-17.8-17.9-17.9l-287.1-0.2c-9.8,0.1-17.8,8-17.9,17.9v12.3
							c0.1,9.8,8,17.8,17.9,17.9l35.2,0.1c9.8-0.1,17.8,8,17.9,17.9v12.3c0.1,9.8-8,17.8-17.9,17.9h-3.1c-9.8,0.1-17.8,8-17.9,17.9
							v12.3c0.1,9.8,8,17.8,17.9,17.9h62.6c9.8-0.1,17.8,8,17.9,17.9v12.3c0.1,9.8-8,17.8-17.9,17.9h-34c-9.8,0.1-17.8,8-17.9,17.9
							v12.3c0.1,9.8-8,17.8-17.9,17.9l-25.1-0.1c-9.8,0.1-17.8,8-17.9,17.9v12.3c0.1,9.8-8,17.8-17.9,17.9h-3
							c-9.8,0.1-17.8,8-17.9,17.9V924c0.1,9.8,8,17.8,17.9,17.9h38c9.8-0.1,17.8,8,17.9,17.9v11.7c0.1,9.8,8,17.8,17.9,17.9
							l252.2,0.2c9.8-0.1,17.8-8,17.9-17.9v-12.3c-0.1-9.8-8-17.8-17.9-17.9h-45.1c-9.8,0.1-17.8-8-17.9-17.9v-11.7
							c-0.1-9.8,8-17.8,17.9-17.9h73.4c9.8-0.1,17.8-8,17.9-17.9v-12.3c-0.1-9.8-8-17.8-17.9-17.9h-28.4c-9.8,0.1-17.8-8-17.9-17.9
							v-12.3c-0.1-9.8,8-17.8,17.9-17.9l0,0C1819.7,797.9,1827.6,789.9,1827.7,780z"/>
					</g>
				</g>
			</g>
		</g>
		<g>
			<g>
				<g>
					<g>
						<defs>
							<circle id="SVGID_24_" cx="1618" cy="797" r="170.4"/>
						</defs>
						<clipPath id="SVGID_25_">
							<use xlink:href="#SVGID_24_"  style="overflow:visible;"/>
						</clipPath>
						<path class="st27" d="M1791,765.9v-12.3c-0.1-9.8,8-17.8,17.9-17.9h12.7c9.8-0.1,17.8-8,17.9-17.9v-12.3
							c-0.1-9.8-8-17.8-17.9-17.9l-85.9-0.1c-9.8,0.1-17.8-8-17.9-17.9v-12.3c-0.1-9.8,8-17.8,17.9-17.9h37.6
							c9.8-0.1,17.8-8,17.9-17.9v-12.3c-0.1-9.8-8-17.8-17.9-17.9l-287.1-0.2c-9.8,0.1-17.8,8-17.9,17.9v12.3
							c0.1,9.8,8,17.8,17.9,17.9l35.2,0.1c9.8-0.1,17.8,8,17.9,17.9v12.3c0.1,9.8-8,17.8-17.9,17.9h-3.1c-9.8,0.1-17.8,8-17.9,17.9
							v12.3c0.1,9.8,8,17.8,17.9,17.9h62.6c9.8-0.1,17.8,8,17.9,17.9v12.3c0.1,9.8-8,17.8-17.9,17.9h-34c-9.8,0.1-17.8,8-17.9,17.9
							v12.3c0.1,9.8-8,17.8-17.9,17.9l-25.1-0.1c-9.8,0.1-17.8,8-17.9,17.9v12.3c0.1,9.8-8,17.8-17.9,17.9h-3
							c-9.8,0.1-17.8,8-17.9,17.9v12.3c0.1,9.8,8,17.8,17.9,17.9h38c9.8-0.1,17.8,8,17.9,17.9v11.7c0.1,9.8,8,17.8,17.9,17.9
							l252.2,0.2c9.8-0.1,17.8-8,17.9-17.9v-12.3c-0.1-9.8-8-17.8-17.9-17.9h-45.1c-9.8,0.1-17.8-8-17.9-17.9v-11.7
							c-0.1-9.8,8-17.8,17.9-17.9h73.4c9.8-0.1,17.8-8,17.9-17.9v-12.3c-0.1-9.8-8-17.8-17.9-17.9h-28.4c-9.8,0.1-17.8-8-17.9-17.9
							v-12.3c-0.1-9.8,8-17.8,17.9-17.9l0,0C1783.1,783.7,1791,775.8,1791,765.9z"/>
					</g>
				</g>
			</g>
		</g>
		<g>
			<g>
				<g>
					<g>
						<defs>
							<circle id="SVGID_27_" cx="1618" cy="797" r="170.4"/>
						</defs>
						<clipPath id="SVGID_28_">
							<use xlink:href="#SVGID_27_"  style="overflow:visible;"/>
						</clipPath>
						<path class="st28" d="M1502,517.5l85,0.2c9.8-0.1,17.8,8,17.9,17.9v12.3c0.1,9.8-8,17.8-17.9,17.9h-45.1
							c-9.8,0.1-17.8,8-17.9,17.9v11.7c0.1,9.8,8,17.8,17.9,17.9h73.4c9.8-0.1,17.8,8,17.9,17.9v12.3c0.1,9.8-8,17.8-17.9,17.9
							h-28.4c-9.8,0.1-17.8,8-17.9,17.9v12.3c0.1,9.8,8,17.8,17.9,17.9l0,0c9.8-0.2,17.9,7.8,17.8,17.7v12.3
							c0.1,9.8,8,17.8,17.9,17.9h12.7c9.8-0.1,17.8,8,17.9,17.9v12.3c0.1,9.8-8,17.8-17.9,17.9l-86-0.2c-9.8,0.1-17.8,8-17.9,17.9
							v12.3c0.1,9.8,8,17.8,17.9,17.9h37.6c9.8-0.1,17.8,8,17.9,17.9v12.3c0.1,9.8-8,17.8-17.9,17.9l-217.4-0.2L1502,517.5z"/>
					</g>
				</g>
			</g>
		</g>
		<g>
			<g>
				<g>
					<g>
						<defs>
							<circle id="SVGID_29_" cx="1618" cy="797" r="170.4"/>
						</defs>
						<clipPath id="SVGID_30_">
							<use xlink:href="#SVGID_29_"  style="overflow:visible;"/>
						</clipPath>
						<path class="st29" d="M1416.4,573.9l-63.7,257.3l149.9,0.2c6.7,0,11.9-5.4,12-12v-8.3c0-6.7-5.4-11.9-12-12h-30.2
							c-6.7,0-11.9-5.3-12-12v-7.9c0-6.7,5.3-11.9,12-12l49.2,0.1c6.7,0,11.9-5.4,12-12V747c0-6.7-5.4-11.9-12-12l-19-0.1
							c-6.7,0-11.9-5.3-12-12v-8.3c0-6.7,5.3-11.9,12-12l0,0c6.7,0,12-5.4,12-11.9v-8.3c0-6.7,5.3-11.9,12-12l8.5,0.1
							c6.7,0,11.9-5.4,12-12v-8.3c0-6.7-5.4-11.9-12-12h-57.7c-6.7,0-11.9-5.3-12-12v-8.3c0-6.7,5.3-11.9,12-12h25.3
							c6.7,0,11.9-5.4,12-12v-8.3c0-6.7-5.4-11.9-12-12L1416.4,573.9"/>
					</g>
				</g>
			</g>
		</g>
		<g>
			<g>
				<g>
					<g>
						<defs>
							<circle id="SVGID_31_" cx="1618" cy="797" r="170.4"/>
						</defs>
						<clipPath id="SVGID_32_">
							<use xlink:href="#SVGID_31_"  style="overflow:visible;"/>
						</clipPath>
						<path class="st30" d="M1791.8,814.7l-21.6,191.6h-34c-9.8,0.1-17.8-8-17.9-17.9v-12.3c-0.1-9.8-8-17.8-17.9-17.9l-25.1-0.1
							c-9.8,0.1-17.8-8-17.9-17.9v-12.3c-0.1-9.8-8-17.8-17.9-17.9h-3c-9.8,0.1-17.8-8-17.9-17.9v-12.3c-0.1-9.8,8-17.8,17.9-17.9
							h38c9.8-0.1,17.8-8,17.9-17.9v-11.7c-0.1-9.8,8-17.8,17.9-17.9L1791.8,814.7"/>
					</g>
				</g>
			</g>
		</g>
	</g>
	<path class="st7" d="M1808.7,782.8l-147-0.1c-11.7,0-21.1-9.4-21.1-21.1l0,0c0-11.7,9.4-21.1,21.1-21.1l147,0.2
		c11.7,0,21.1,9.4,21.1,21.1l0,0C1829.8,773.5,1820.3,782.9,1808.7,782.8z"/>
	<path class="st7" d="M1558.3,869.4h-20.6c-11.7,0-21.1-9.4-21.1-21.1l0,0c0-11.7,9.4-21.1,21.1-21.1h20.6
		c11.7,0,21.1,9.4,21.1,21.1l0,0C1579.4,859.9,1570,869.4,1558.3,869.4z"/>
	<path class="st7" d="M1546.2,760.7v-4.6c0-7.3-5.9-13.2-13.2-13.2h-87c-7.3,0-13.2,5.9-13.2,13.2v4.6c0,7.3-6,13.1-13.2,13.2l0,0
		c-7.3,0-13.2,5.9-13.2,13.2l0.1,6.9c0,7.3,5.9,13.2,13.2,13.2l160,0.2c7.3,0,13.2-5.9,13.2-13.2l-0.1-6.9c0-7.3-5.9-13.2-13.2-13.2
		h-20.2C1552.1,773.8,1546.2,768,1546.2,760.7z"/>
	<path class="st7" d="M1758.3,899.8v-3.9c0-4.4,3.6-7.9,7.9-7.9l0,0c4.4,0,7.9-3.5,7.9-7.9v-6.7c0-4.4-3.5-7.9-7.9-7.9h-7.3
		c-4.4,0-7.9-3.6-7.9-7.9v-5.1c0-4.4-3.5-7.9-7.9-7.9l-56.9-0.1c-4.4,0-7.9,3.5-7.9,7.9v6.7c0,4.4,3.5,7.9,7.9,7.9h7.9
		c4.4,0,7.9,3.6,7.9,7.9v3.9c0,4.4-3.6,7.9-7.9,7.9h-14c-4.4,0-7.9,3.5-7.9,7.9v5.1c0,4.4-3.6,7.9-7.9,7.9l-79.7-0.1
		c-4.4,0-7.9,3.5-7.9,7.9v6.7c0,4.4,3.5,7.9,7.9,7.9l215,0.2c4.4,0,7.9-3.5,7.9-7.9v-6.7c0-4.4-3.5-7.9-7.9-7.9l-33.4-0.1
		C1761.9,907.7,1758.3,904.2,1758.3,899.8z"/>
	<path class="st7" d="M1744.9,668.3v-2.6c0-2.8,2.3-5.2,5.1-5.2l0,0c2.8,0,5.1-2.3,5.1-5.2V651c0-2.8-2.3-5.1-5.2-5.1h-4.7
		c-2.8,0-5.2-2.3-5.2-5.1v-3.3c0-2.8-2.3-5.1-5.2-5.1l-37-0.1c-2.8,0-5.1,2.3-5.1,5.2v3.3c0,2.8-2.3,5.2-5.1,5.2h-6.7
		c-2.8,0-5.1,2.3-5.1,5.2v3.5c0,2.8-2.3,5.2-5.1,5.2h-4c-2.8,0-5.1,2.3-5.1,5.2v3.3c0,2.8-2.3,5.2-5.1,5.2l-5.5-0.1
		c-2.8,0-5.1,2.3-5.1,5.2v4.3c0,2.8,2.3,5.1,5.2,5.1l120.8,0.1c2.8,0,5.1-2.3,5.1-5.2v-4.3c0-2.8-2.3-5.1-5.2-5.1h-21.7
		C1747.2,673.4,1744.8,671.1,1744.9,668.3z"/>
	<path class="st7" d="M1613.2,674.4l-11.2,0.1c-6.3-0.1-11.5-5.1-11.4-11.5l0,0c0.1-6.3,5.1-11.5,11.5-11.4l11.2-0.1
		c6.3,0.1,11.5,5.1,11.4,11.5l0,0C1624.7,669.4,1619.6,674.5,1613.2,674.4z"/>
</g>
<g id="rocket_ship_1_" class="st31">
	<g id="rocket_ship" class="st32">
		<g>
			<g>
				<g>
					<g>
						<g>
							<g>
								<g>
									<defs>
										<path id="SVGID_33_" d="M1353.3,210.5c5.8,3,11.6,6,17.5,9c-3.2,5.7-7.4,14.3-9.6,24.7c-1.7,7.8-1.7,13.9-1.7,15.2
											c0,1.1,0.1,5.8,0.6,8.9c2.9,16.2,25.9,29.1,32.3,39.2c0.8,1.3,2.1,3.6,2.7,6.7c0.6,2.7,0.4,5,0.2,6.3
											c-0.8,8.2-6.8,19.3-7.6,20.8c-34.6-9.9-69.1-19.7-103.6-29.5c-24.3-9.5-48.6-19.1-72.9-28.6c6.2-7.5,16.5-17.1,29.8-17.5
											c0.6-0.1,1.4-0.1,2.1,0c14.6-0.7,29.1-1.4,43.6-2.1c5.9-11.9,22.1-40.2,53.3-50.1C1344.4,212,1348.9,211.1,1353.3,210.5z"
											/>
									</defs>
									<clipPath id="SVGID_34_">
										<use xlink:href="#SVGID_33_"  style="overflow:visible;"/>
									</clipPath>
									<ellipse class="st33" cx="1314.8" cy="269.3" rx="115.1" ry="102.4"/>
								</g>
							</g>
						</g>
					</g>
				</g>
			</g>
			<g>
				<g>
					<g>
						<g>
							<g>
								<g>
									<defs>
										<path id="SVGID_35_" d="M1353.3,210.5c5.8,3,11.6,6,17.5,9c-3.2,5.7-7.4,14.3-9.6,24.7c-1.7,7.8-1.7,13.9-1.7,15.2
											c0,1.1,0.1,5.8,0.6,8.9c2.9,16.2,25.9,29.1,32.3,39.2c0.8,1.3,2.1,3.6,2.7,6.7c0.6,2.7,0.4,5,0.2,6.3
											c-0.8,8.2-6.8,19.3-7.6,20.8c-34.6-9.9-69.1-19.7-103.6-29.5c-24.3-9.5-48.6-19.1-72.9-28.6c6.2-7.5,16.5-17.1,29.8-17.5
											c0.6-0.1,1.4-0.1,2.1,0c14.6-0.7,29.1-1.4,43.6-2.1c5.9-11.9,22.1-40.2,53.3-50.1C1344.4,212,1348.9,211.1,1353.3,210.5z"
											/>
									</defs>
									<clipPath id="SVGID_36_">
										<use xlink:href="#SVGID_35_"  style="overflow:visible;"/>
									</clipPath>
									<path class="st34" d="M1404.3,347c-31.2-25.2-62.5-50.3-93.7-75.5c-45.7,4.2-91.5,8.5-137.3,12.7c77,26.6,154,53,231,79.6
										V347L1404.3,347z"/>
								</g>
							</g>
						</g>
					</g>
				</g>
			</g>
		</g>
		<g>
			<g>
				<g>
					<g>
						<g>
							<g>
								<g>
									<defs>
										<path id="SVGID_37_" d="M1370.7,219.6c-17.3,24.2-34.5,48.4-51.8,72.6c-2.3,3.3-16.7,22.5-39.9,23.3
											c-3.9,0.1-20.6,0.8-27.5-9.7s-2-29.8,14.9-44.1c23.8-20.3,47.6-40.6,71.2-60.9c1.7-1.8,4.9-4.6,9.5-6.5
											c1.7-0.6,11.7-4.6,19,0.5C1372.4,199.2,1374.8,209.6,1370.7,219.6z"/>
									</defs>
									<clipPath id="SVGID_38_">
										<use xlink:href="#SVGID_37_"  style="overflow:visible;"/>
									</clipPath>
									<ellipse class="st35" cx="1305" cy="244.5" rx="86.2" ry="96.8"/>
								</g>
							</g>
						</g>
					</g>
				</g>
			</g>
		</g>
		
			<ellipse transform="matrix(0.6488 -0.7609 0.7609 0.6488 219.3079 1069.5852)" class="st36" cx="1268.5" cy="297.2" rx="14.5" ry="18.3"/>
		<g>
			<g>
				<g>
					<g>
						<g>
							<g>
								<g>
									<defs>
										<path id="SVGID_39_" d="M1271.1,293.5c4.9,3.6,3.5,11.5,1.1,24.2c-2.6,14-7.8,20.3-10.7,23.2c-2.2,2.2-3.8,3.7-6.6,4.9
											c-10.6,4.3-22.6-4.6-24.4-6c-7.7-5.7-9.9-12.8-10.8-15.4c-1.6-5.3-0.8-8.4-0.6-9.3c0.9-3.5,3-6,4.3-7.3
											c4.6-3,11.9-7.4,21.9-10.9C1256.4,293.1,1265.9,289.7,1271.1,293.5z"/>
									</defs>
									<clipPath id="SVGID_40_">
										<use xlink:href="#SVGID_39_"  style="overflow:visible;"/>
									</clipPath>
									<circle class="st37" cx="1245.1" cy="322.5" r="40.5"/>
								</g>
							</g>
						</g>
					</g>
				</g>
			</g>
			<g>
				<g>
					<g>
						<g>
							<g>
								<g>
									<defs>
										<path id="SVGID_41_" d="M1271.1,293.5c4.9,3.6,3.5,11.5,1.1,24.2c-2.6,14-7.8,20.3-10.7,23.2c-2.2,2.2-3.8,3.7-6.6,4.9
											c-10.6,4.3-22.6-4.6-24.4-6c-7.7-5.7-9.9-12.8-10.8-15.4c-1.6-5.3-0.8-8.4-0.6-9.3c0.9-3.5,3-6,4.3-7.3
											c4.6-3,11.9-7.4,21.9-10.9C1256.4,293.1,1265.9,289.7,1271.1,293.5z"/>
									</defs>
									<clipPath id="SVGID_42_">
										<use xlink:href="#SVGID_41_"  style="overflow:visible;"/>
									</clipPath>
									<path class="st38" d="M1261.7,339.7c-5.3,10.5-21.8,17-34.4,10.1c-13.3-7.3-16.5-26-9.2-36.5c4.7-6.8,12.8-8.3,14.6-8.6
										c14.2-2.1,29,10.1,30.8,23.5C1263.7,329.8,1264.2,334.6,1261.7,339.7z"/>
								</g>
							</g>
						</g>
					</g>
				</g>
			</g>
		</g>
		
			<ellipse transform="matrix(0.6269 -0.7791 0.7791 0.6269 208.4784 1088.5792)" class="st36" cx="1240.8" cy="326.6" rx="12.5" ry="18.6"/>
		<g>
			<g>
				<g>
					<g>
						<g>
							<g>
								<g>
									<defs>
										<path id="SVGID_43_" d="M1288.3,251c-8.1,8.2-16.1,16.5-24.2,24.7c-0.5-2-0.9-3.9-1.5-5.9c0-0.1-0.2-0.8-0.8-1.2
											c-0.5-0.3-0.9-0.2-1.1-0.2c-2.7,0.4-5.5,0.8-8.2,1.2c-1.1,0.2-2.1,0.2-3-0.4c-0.2-0.2-0.4-0.3-0.4-0.4
											c-5.2-4.6-43.5-39-45.2-41.1c-0.9-1.1-0.8-2-0.8-2c0.1-0.6,0.6-1.1,0.8-1.2c11.8-6.4,20.5-11.1,22-11.8
											c1.2-0.5,2.3-0.6,2.6-0.6c0.7-0.1,1.3,0.1,1.8,0.2c26.7,11.3,46,20.9,51.2,24.6c1.2,0.9,4,3,5.7,6.8
											C1288.2,246.6,1288.3,249.2,1288.3,251z"/>
									</defs>
									<clipPath id="SVGID_44_">
										<use xlink:href="#SVGID_43_"  style="overflow:visible;"/>
									</clipPath>
									<ellipse class="st39" cx="1242.3" cy="241.5" rx="62.5" ry="43.5"/>
								</g>
							</g>
						</g>
					</g>
				</g>
			</g>
			<g>
				<g>
					<g>
						<g>
							<g>
								<g>
									<defs>
										<path id="SVGID_45_" d="M1288.3,251c-8.1,8.2-16.1,16.5-24.2,24.7c-0.5-2-0.9-3.9-1.5-5.9c0-0.1-0.2-0.8-0.8-1.2
											c-0.5-0.3-0.9-0.2-1.1-0.2c-2.7,0.4-5.5,0.8-8.2,1.2c-1.1,0.2-2.1,0.2-3-0.4c-0.2-0.2-0.4-0.3-0.4-0.4
											c-5.2-4.6-43.5-39-45.2-41.1c-0.9-1.1-0.8-2-0.8-2c0.1-0.6,0.6-1.1,0.8-1.2c11.8-6.4,20.5-11.1,22-11.8
											c1.2-0.5,2.3-0.6,2.6-0.6c0.7-0.1,1.3,0.1,1.8,0.2c26.7,11.3,46,20.9,51.2,24.6c1.2,0.9,4,3,5.7,6.8
											C1288.2,246.6,1288.3,249.2,1288.3,251z"/>
									</defs>
									<clipPath id="SVGID_46_">
										<use xlink:href="#SVGID_45_"  style="overflow:visible;"/>
									</clipPath>
									<path class="st40" d="M1193.4,215c19.8,16.3,39.5,32.6,59.2,48.9c4.6-0.8,9.1-1.5,13.7-2.2c1.1,5.6,2.3,11.1,3.4,16.7
										c-2.3,2.2-4.7,4.4-7.1,6.6l-78.9-48.7C1186.9,229.2,1190.2,222.1,1193.4,215z"/>
								</g>
							</g>
						</g>
					</g>
				</g>
			</g>
		</g>
		<g>
			<g>
				<g>
					<g>
						<g>
							<g>
								<g>
									<defs>
										<path id="SVGID_47_" d="M1367.8,204.9c-0.2-0.2-0.6-0.1-0.9,0c-0.2,0.1-0.7,0.2-1.2,0.7c-26.7,30.2-45.8,51.8-47.8,54
											c-0.2,0.3-0.9,1-1.5,2.1c-1.2,2.2-1.1,4.6-1.2,5.2c0,0.2,0,0.6,0,1.7c0,1.5,0,1.5,0,1.8c0.1,1.2,0.1,2.5,0.7,2.7
											c0.8,0.4,2.3-1.5,2.6-1.9c2.6-3.2,21.4-25.7,47.5-56.9c0.4-0.4,0.9-1.1,1.4-2.1c0.4-0.9,0.5-1.8,0.5-2.3
											c0-0.2,0.2-3,0.2-4.4C1368.1,205.4,1368.1,205.1,1367.8,204.9z"/>
									</defs>
									<clipPath id="SVGID_48_">
										<use xlink:href="#SVGID_47_"  style="overflow:visible;"/>
									</clipPath>
									<ellipse class="st41" cx="1343.8" cy="247.6" rx="48.7" ry="58.9"/>
								</g>
							</g>
						</g>
					</g>
				</g>
			</g>
		</g>
		<path class="st42" d="M1263.5,272.7"/>
		<path class="st43" d="M1281.4,318.8"/>
	</g>
	<g id="blast" class="st32">
		<path class="st44" d="M947.6,656l15.8,13.4c10.2,8.7,25.6,7.4,34.3-2.8L1253,366.1c1.8-2.3,6.6-9,5.7-17.7c-0.6-6.6-4-11-8.5-16.6
			c-2.9-3.6-7.9-9-15.8-13.4c-6.3-3.5-11.1-6.2-17.7-5.7c-8.8,0.6-14.6,6.4-16.6,8.5L944.8,621.6C936.1,631.9,937.3,647.3,947.6,656
			z"/>
		<circle class="st45" cx="1218.9" cy="352.7" r="29"/>
		<g>
			<path class="st45" d="M1172.7,362.4c-0.6,0.8-3,3.5-5.2,6.1l-47.8,56.3c-2.2,2.6-2.5,6.1-0.6,7.7s5.3,0.8,7.5-1.8l37.7-44.4
				c2.2-2.6,5.3-3.7,7-2.3c1.6,1.3,1.1,4.6-1.2,7.2l-18.1,21.3c-2.2,2.6-2.4,6.2-0.4,7.8c2,1.7,5.5,0.9,7.7-1.7l23.3-27.4
				c2.2-2.6,6-3.2,8.2-1.2c2.3,2,2.3,5.7,0.1,8.3l-5.3,6.2c-2.2,2.6-2.2,6.4,0.1,8.3c2.3,1.9,2.3,5.7,0.1,8.3l-22.7,26.8
				c-2.2,2.6-2.4,6.2-0.4,7.9c2,1.7,5.5,0.9,7.7-1.6l43.2-50.8c2.2-2.6,1.9-6.6-0.7-8.8l-34.5-29.4
				C1175.9,362.9,1173.2,361.7,1172.7,362.4z"/>
		</g>
		<polygon class="st45" points="1196.8,333.9 1169.4,366.2 1212.9,404.3 1240.9,371.4 		"/>
	</g>
	<polygon class="st46" points="907.9,470.9 1034.7,551.3 1097.6,684.2 907.9,684.2 	"/>
</g>
<g>
	<g>
		<g>
			<g>
				<g>
					<defs>
						<rect id="SVGID_49_" y="-0.5" width="1920.1" height="3592.5"/>
					</defs>
					<clipPath id="SVGID_50_">
						<use xlink:href="#SVGID_49_"  style="overflow:visible;"/>
					</clipPath>
					
						<linearGradient id="SVGID_51_" gradientUnits="userSpaceOnUse" x1="960.0001" y1="-1657.0754" x2="960.0001" y2="-6142.6582" gradientTransform="matrix(1 0 0 1 0 4104)">
						<stop  offset="9.020607e-02" style="stop-color:#94009C;stop-opacity:0.91"/>
						<stop  offset="0.801" style="stop-color:#000000;stop-opacity:0"/>
					</linearGradient>
					<rect x="-960.1" y="-564" class="st47" width="3840.2" height="7280.8"/>
				</g>
			</g>
		</g>
	</g>
</g>
</svg>
