<?xml version="1.0" encoding="utf-8"?>
<!-- Generator: Adobe Illustrator 23.0.3, SVG Export Plug-In . SVG Version: 6.00 Build 0)  -->
<svg version="1.1" id="Layer_1" xmlns="http://www.w3.org/2000/svg" xmlns:xlink="http://www.w3.org/1999/xlink" x="0px" y="0px"
	 viewBox="0 0 960 937" style="enable-background:new 0 0 960 937;" xml:space="preserve">
<style type="text/css">
	.st0{fill:none;stroke:#B0B2FF;stroke-width:4;stroke-miterlimit:10;}
	.st1{fill:#FFFFFF;}
	.st2{clip-path:url(#SVGID_2_);fill:#FEE199;}
	.st3{clip-path:url(#SVGID_4_);fill:#5D20F4;}
	.st4{clip-path:url(#SVGID_6_);fill:#F9FFD6;}
	.st5{clip-path:url(#SVGID_8_);fill:#F9FFD6;}
	.st6{clip-path:url(#SVGID_10_);fill:#FDBA8C;}
	.st7{clip-path:url(#SVGID_12_);fill:#F9FFD6;}
	.st8{clip-path:url(#SVGID_14_);fill:#F9FFD6;}
	.st9{clip-path:url(#SVGID_16_);fill:#F9FFD6;}
	.st10{clip-path:url(#SVGID_18_);fill:#F9FFD6;}
	.st11{fill:#B0B2FF;}
	.st12{fill:none;stroke:#6479FF;stroke-width:10.8;stroke-miterlimit:10;}
	.st13{clip-path:url(#SVGID_20_);fill:#B0B2FF;}
	.st14{clip-path:url(#SVGID_22_);fill:#6479FF;}
	.st15{clip-path:url(#SVGID_24_);fill:#F9FFD6;}
	.st16{clip-path:url(#SVGID_26_);fill:#9B9698;}
	.st17{clip-path:url(#SVGID_28_);fill:#5D20F4;}
	.st18{clip-path:url(#SVGID_30_);fill:#83677B;}
	.st19{clip-path:url(#SVGID_32_);fill:#F9FFD6;}
	.st20{clip-path:url(#SVGID_34_);fill:#F9FFD6;}
	.st21{clip-path:url(#SVGID_36_);fill:#F9FFD6;}
	.st22{clip-path:url(#SVGID_38_);fill:#F9FFD6;}
	.st23{fill:none;stroke:#6479FF;stroke-width:8.5;stroke-miterlimit:10;}
	.st24{clip-path:url(#SVGID_40_);fill:#B0B2FF;}
	.st25{clip-path:url(#SVGID_42_);fill:#6479FF;}
	.st26{clip-path:url(#SVGID_44_);fill:#F9FFD6;}
</style>
<g id="dog_1_">
	<g id="helmet_1_">
		<ellipse class="st0" cx="487" cy="304.8" rx="126.5" ry="126.5"/>
		<path class="st1" d="M553.4,219c-3.5-4.2-8.9-6.3-12.8-4.8c-5,2.2-8.2,10.7-3.5,18.3c16.4,14.3,24.9,27.9,29.8,38
			c9.1,18.7,13.5,36.7,17.7,36c2.4-0.3,3.3-7.9,3.5-10.9c0.4-5.3,1.2-18.6-10.4-43.2C568.5,232.7,558.8,225.7,553.4,219z"/>
		<path class="st1" d="M578.8,342.8"/>
		<path class="st1" d="M591.3,332.9c-0.4,4.2-3.5,9.1-6.8,8.6c-2-0.3-3.3-2.2-3.3-2.2c-1-1.4-0.7-2.6-0.3-6.2
			c0.3-3.9-0.7-5.3-0.1-7.6c0.3-1,1-3.5,2.7-3.7c1.3-0.3,2.4,0.9,3.5,1.6C589.1,325.1,591.7,328.9,591.3,332.9z"/>
	</g>
	<g id="dog_body_1_">
		<g>
			<g>
				<g>
					<defs>
						<path id="SVGID_1_" d="M277.9,560.2c-38.6,1.2-73.7-23.6-85.8-60.1c-12.2-36.3,1-76.9,32.4-99.1c4.6-1.4,8.8-1,10.1,1
							c1.6,2.4-0.4,8.5-7.2,12.5c-24.2,20-33.4,52.9-22.9,81.4c11.2,31.1,43.2,51.3,77.6,47.5c5.9-8.5,15.4-20.5,29.1-32.7
							c18.3-16.3,35.1-24.3,39.3-26.5c46.2-23.9,71.7-68.8,95.9-104c3.3-4.9,5.9-8.9,7.9-11.7c-7.3-6.6-17.3-17.3-21.3-32.8
							c-4.6-16,0.1-26.1-0.3-43.8c-0.3-12.5-2.9-30.8-14.4-53.1c4.3,2.3,14.1,8.5,20.5,20.5c4,7.3,5.2,14.3,5.5,18.7
							c1.4-1.4,3.5-3.5,6.6-5c4.6-2.3,8.8-2.7,11.1-2.7c-3.9-16.3-7.6-32.7-11.5-49c5.2,3.3,15.6,11.1,22.6,25.5
							c5.3,11.1,6.3,21,6.6,26.6c7.3,4,17.3,10.9,23.2,22.6c6.6,13.4,3.3,23.5,5.3,34.9c2.4,12.8,12.2,29.8,46.2,46.4
							c1.4,2.2,5.8,9.1,3.5,15.6c-3.2,8.5-17.3,14.1-33.6,8.6c-17.4-6.2-34.9-12.2-52.1-18.6c-2.9,21.6-5.5,43.5-8.4,65
							c2.2,33.4,4.5,67,6.6,100.4c0.1,0.7,0.3,1.7,1.2,2.2c0.7,0.4,1.6,0.3,1.9,0.3c3.5-0.6,32.8-12.5,48.7-16.1
							c4.9-1.2,12.1-2.3,14.7,1c1.2,1.6,1,4,0.7,5.6c-5.8,16.1-11.5,32.3-17.1,48.4c-5.9,5.3-9.8,7.2-12.2,5.9
							c-3.7-2-2.7-12.8,3.2-32.3c-21.7,8.5-38.6,14.5-48.4,17.7c-2.6,0.9-7.9,2.4-11.7-0.1c-2.9-2.2-3.6-6-3.9-8.2
							c-2.2-15.4-3.6-38.2-3.9-41.6c-8.6,9.8-17.9,19.2-26.1,29.2c-11.2,13.5-22.5,27.4-26.1,29.2c-9.9,7.2-20.3,14.5-30.2,21.7
							c-4.5,33-8.6,58-11.7,68c-0.7,2.4-2.2,6.8-6,9.5c-5,3.2-10.9,2-12.8,1.6c-10.5-2-39.6-2.7-82.8-2.4c-0.4,7.2,0.1,12.8,1,16.7
							c0.3,2,1,4.3,0.7,7.6s-1.4,9.4-4.2,10.1c-3,0.7-6.9-5.9-9.8-10.7c-5.3-9.1-3.7-10.9-9.1-29.8c-0.4-1.6-1.6-5,0.3-7.5
							c1.3-1.7,3.5-2.2,4.5-2.3c5.2-0.6,36.7-4.9,80.1-10.7c0.3,0,0.9,0,1.4-0.3c0.9-0.6,1.3-1.6,1.2-2.9
							c-1.2-24.2-2.4-48.4-3.6-72.6c-2.7,19.7-5.3,39.8-8.1,59.5c-1,7.3-2,14.8-2.9,22c-14.1-2.7-28.4-5.6-43.1-9.1
							c-15.4-3.5-30.5-7.2-44.9-11.1c0.3,1.6,1.2,4.3,2.2,7.6c2.2,6.3,3.3,7.5,3.9,10.4c1.4,6.6-1,15.1-4.6,16
							c-4.8,1.2-11.1-10.2-13.5-15.6c-0.7-1.6-1.2-2.9-4.2-14.1c-4.5-16.7-4.8-19.7-2.9-21.7c1-1,3.3-2.7,9.2-1.7
							c7.2,1,22.9,3.2,29.8,4c12.1,1.6,29.1,4,41.2,5.6c0.3,0,1.4,0.3,2.4-0.6c1.4-1,1.4-2.7,1.4-2.9
							C275.9,621.8,276.3,609.7,277.9,560.2z"/>
					</defs>
					<clipPath id="SVGID_2_">
						<use xlink:href="#SVGID_1_"  style="overflow:visible;"/>
					</clipPath>
					<path class="st2" d="M384.2,315.3c11.2,33,48,49,63.4,54.6c7.2-9.8,19.9-10.4,25.2-5c4,4,4.6,11.8,1,18.7
						c10.8,16.1,31.1,40.3,59.3,43.8c56.2,7.1,126.2-68.1,116.4-145.6c-9.1-71.3-75.8-121.4-148.9-112.2
						C424.7,179.2,365.2,260.2,384.2,315.3z"/>
				</g>
			</g>
		</g>
		<g>
			<g>
				<g>
					<defs>
						<path id="SVGID_3_" d="M277.9,560.2c-38.6,1.2-73.7-23.6-85.8-60.1c-12.2-36.3,1-76.9,32.4-99.1c4.6-1.4,8.8-1,10.1,1
							c1.6,2.4-0.4,8.5-7.2,12.5c-24.2,20-33.4,52.9-22.9,81.4c11.2,31.1,43.2,51.3,77.6,47.5c5.9-8.5,15.4-20.5,29.1-32.7
							c18.3-16.3,35.1-24.3,39.3-26.5c46.2-23.9,71.7-68.8,95.9-104c3.3-4.9,5.9-8.9,7.9-11.7c-7.3-6.6-17.3-17.3-21.3-32.8
							c-4.6-16,0.1-26.1-0.3-43.8c-0.3-12.5-2.9-30.8-14.4-53.1c4.3,2.3,14.1,8.5,20.5,20.5c4,7.3,5.2,14.3,5.5,18.7
							c1.4-1.4,3.5-3.5,6.6-5c4.6-2.3,8.8-2.7,11.1-2.7c-3.9-16.3-7.6-32.7-11.5-49c5.2,3.3,15.6,11.1,22.6,25.5
							c5.3,11.1,6.3,21,6.6,26.6c7.3,4,17.3,10.9,23.2,22.6c6.6,13.4,3.3,23.5,5.3,34.9c2.4,12.8,12.2,29.8,46.2,46.4
							c1.4,2.2,5.8,9.1,3.5,15.6c-3.2,8.5-17.3,14.1-33.6,8.6c-17.4-6.2-34.9-12.2-52.1-18.6c-2.9,21.6-5.5,43.5-8.4,65
							c2.2,33.4,4.5,67,6.6,100.4c0.1,0.7,0.3,1.7,1.2,2.2c0.7,0.4,1.6,0.3,1.9,0.3c3.5-0.6,32.8-12.5,48.7-16.1
							c4.9-1.2,12.1-2.3,14.7,1c1.2,1.6,1,4,0.7,5.6c-5.8,16.1-11.5,32.3-17.1,48.4c-5.9,5.3-9.8,7.2-12.2,5.9
							c-3.7-2-2.7-12.8,3.2-32.3c-21.7,8.5-38.6,14.5-48.4,17.7c-2.6,0.9-7.9,2.4-11.7-0.1c-2.9-2.2-3.6-6-3.9-8.2
							c-2.2-15.4-3.6-38.2-3.9-41.6c-8.6,9.8-17.9,19.2-26.1,29.2c-11.2,13.5-22.5,27.4-26.1,29.2c-9.9,7.2-20.3,14.5-30.2,21.7
							c-4.5,33-8.6,58-11.7,68c-0.7,2.4-2.2,6.8-6,9.5c-5,3.2-10.9,2-12.8,1.6c-10.5-2-39.6-2.7-82.8-2.4c-0.4,7.2,0.1,12.8,1,16.7
							c0.3,2,1,4.3,0.7,7.6s-1.4,9.4-4.2,10.1c-3,0.7-6.9-5.9-9.8-10.7c-5.3-9.1-3.7-10.9-9.1-29.8c-0.4-1.6-1.6-5,0.3-7.5
							c1.3-1.7,3.5-2.2,4.5-2.3c5.2-0.6,36.7-4.9,80.1-10.7c0.3,0,0.9,0,1.4-0.3c0.9-0.6,1.3-1.6,1.2-2.9
							c-1.2-24.2-2.4-48.4-3.6-72.6c-2.7,19.7-5.3,39.8-8.1,59.5c-1,7.3-2,14.8-2.9,22c-14.1-2.7-28.4-5.6-43.1-9.1
							c-15.4-3.5-30.5-7.2-44.9-11.1c0.3,1.6,1.2,4.3,2.2,7.6c2.2,6.3,3.3,7.5,3.9,10.4c1.4,6.6-1,15.1-4.6,16
							c-4.8,1.2-11.1-10.2-13.5-15.6c-0.7-1.6-1.2-2.9-4.2-14.1c-4.5-16.7-4.8-19.7-2.9-21.7c1-1,3.3-2.7,9.2-1.7
							c7.2,1,22.9,3.2,29.8,4c12.1,1.6,29.1,4,41.2,5.6c0.3,0,1.4,0.3,2.4-0.6c1.4-1,1.4-2.7,1.4-2.9
							C275.9,621.8,276.3,609.7,277.9,560.2z"/>
					</defs>
					<clipPath id="SVGID_4_">
						<use xlink:href="#SVGID_3_"  style="overflow:visible;"/>
					</clipPath>
					<polygon class="st3" points="543.5,455.7 472.6,386.6 478.2,374.2 465.1,361.4 451.3,366 440.1,380.6 195.8,370.9 104.4,551.7 
						191.8,775 592.6,682.6 					"/>
				</g>
			</g>
		</g>
		<g>
			<g>
				<g>
					<defs>
						<path id="SVGID_5_" d="M277.9,560.2c-38.6,1.2-73.7-23.6-85.8-60.1c-12.2-36.3,1-76.9,32.4-99.1c4.6-1.4,8.8-1,10.1,1
							c1.6,2.4-0.4,8.5-7.2,12.5c-24.2,20-33.4,52.9-22.9,81.4c11.2,31.1,43.2,51.3,77.6,47.5c5.9-8.5,15.4-20.5,29.1-32.7
							c18.3-16.3,35.1-24.3,39.3-26.5c46.2-23.9,71.7-68.8,95.9-104c3.3-4.9,5.9-8.9,7.9-11.7c-7.3-6.6-17.3-17.3-21.3-32.8
							c-4.6-16,0.1-26.1-0.3-43.8c-0.3-12.5-2.9-30.8-14.4-53.1c4.3,2.3,14.1,8.5,20.5,20.5c4,7.3,5.2,14.3,5.5,18.7
							c1.4-1.4,3.5-3.5,6.6-5c4.6-2.3,8.8-2.7,11.1-2.7c-3.9-16.3-7.6-32.7-11.5-49c5.2,3.3,15.6,11.1,22.6,25.5
							c5.3,11.1,6.3,21,6.6,26.6c7.3,4,17.3,10.9,23.2,22.6c6.6,13.4,3.3,23.5,5.3,34.9c2.4,12.8,12.2,29.8,46.2,46.4
							c1.4,2.2,5.8,9.1,3.5,15.6c-3.2,8.5-17.3,14.1-33.6,8.6c-17.4-6.2-34.9-12.2-52.1-18.6c-2.9,21.6-5.5,43.5-8.4,65
							c2.2,33.4,4.5,67,6.6,100.4c0.1,0.7,0.3,1.7,1.2,2.2c0.7,0.4,1.6,0.3,1.9,0.3c3.5-0.6,32.8-12.5,48.7-16.1
							c4.9-1.2,12.1-2.3,14.7,1c1.2,1.6,1,4,0.7,5.6c-5.8,16.1-11.5,32.3-17.1,48.4c-5.9,5.3-9.8,7.2-12.2,5.9
							c-3.7-2-2.7-12.8,3.2-32.3c-21.7,8.5-38.6,14.5-48.4,17.7c-2.6,0.9-7.9,2.4-11.7-0.1c-2.9-2.2-3.6-6-3.9-8.2
							c-2.2-15.4-3.6-38.2-3.9-41.6c-8.6,9.8-17.9,19.2-26.1,29.2c-11.2,13.5-22.5,27.4-26.1,29.2c-9.9,7.2-20.3,14.5-30.2,21.7
							c-4.5,33-8.6,58-11.7,68c-0.7,2.4-2.2,6.8-6,9.5c-5,3.2-10.9,2-12.8,1.6c-10.5-2-39.6-2.7-82.8-2.4c-0.4,7.2,0.1,12.8,1,16.7
							c0.3,2,1,4.3,0.7,7.6s-1.4,9.4-4.2,10.1c-3,0.7-6.9-5.9-9.8-10.7c-5.3-9.1-3.7-10.9-9.1-29.8c-0.4-1.6-1.6-5,0.3-7.5
							c1.3-1.7,3.5-2.2,4.5-2.3c5.2-0.6,36.7-4.9,80.1-10.7c0.3,0,0.9,0,1.4-0.3c0.9-0.6,1.3-1.6,1.2-2.9
							c-1.2-24.2-2.4-48.4-3.6-72.6c-2.7,19.7-5.3,39.8-8.1,59.5c-1,7.3-2,14.8-2.9,22c-14.1-2.7-28.4-5.6-43.1-9.1
							c-15.4-3.5-30.5-7.2-44.9-11.1c0.3,1.6,1.2,4.3,2.2,7.6c2.2,6.3,3.3,7.5,3.9,10.4c1.4,6.6-1,15.1-4.6,16
							c-4.8,1.2-11.1-10.2-13.5-15.6c-0.7-1.6-1.2-2.9-4.2-14.1c-4.5-16.7-4.8-19.7-2.9-21.7c1-1,3.3-2.7,9.2-1.7
							c7.2,1,22.9,3.2,29.8,4c12.1,1.6,29.1,4,41.2,5.6c0.3,0,1.4,0.3,2.4-0.6c1.4-1,1.4-2.7,1.4-2.9
							C275.9,621.8,276.3,609.7,277.9,560.2z"/>
					</defs>
					<clipPath id="SVGID_6_">
						<use xlink:href="#SVGID_5_"  style="overflow:visible;"/>
					</clipPath>
					<path class="st4" d="M286.8,554.8c-4.9-2-9.2-1.6-10.4-1.6c-31.1,0.6-60.1-15.1-74.7-41.2c-17.6-31.4-7.2-65.7,2.4-82.8
						c8.6-15.3,19.7-22.8,18.7-24.2c-2.4-2.9-51.1,15.6-65.8,51.8C124.7,536,267.3,626.7,275,622.4c0.3-0.1,3.3-2.2,6.9-1.9
						c0.7,0.1,2.4,0.1,4,1.2s2.2,2.2,5.3,5.5c0.7,0.9,1.3,1.4,1.6,1.7c0.3-2.6,0.4-5.2,0.7-7.8c1.6-14.8,3.7-29.2,6.5-42.8
						c3.3,2.2,6.6,4.6,9.8,6.8c0.3,12,0.7,23.9,1,35.9c0.3,8.9,0.6,17.7,1,26.5c0.1-1.9,0.4-5.5,3-7.8c5.3-4.6,14.8,0.9,15.6,1.2
						c4.3,2.6,6.6,6.3,7.6,8.2c2-21,3.2-38.2,3.7-50.3c0,0,0.7-8.5-3-18.1c-2-4.8-4-6.6-5.2-7.2c-1-0.6-2.2-1.2-2.2-1.2
						c-2.6-1-4.9-0.3-16.9-3.9c-10.2-3-15.4-4.8-19.3-8.1C292.6,558.7,290.7,556.4,286.8,554.8z"/>
				</g>
			</g>
		</g>
		<g>
			<g>
				<g>
					<defs>
						<path id="SVGID_7_" d="M277.9,560.2c-38.6,1.2-73.7-23.6-85.8-60.1c-12.2-36.3,1-76.9,32.4-99.1c4.6-1.4,8.8-1,10.1,1
							c1.6,2.4-0.4,8.5-7.2,12.5c-24.2,20-33.4,52.9-22.9,81.4c11.2,31.1,43.2,51.3,77.6,47.5c5.9-8.5,15.4-20.5,29.1-32.7
							c18.3-16.3,35.1-24.3,39.3-26.5c46.2-23.9,71.7-68.8,95.9-104c3.3-4.9,5.9-8.9,7.9-11.7c-7.3-6.6-17.3-17.3-21.3-32.8
							c-4.6-16,0.1-26.1-0.3-43.8c-0.3-12.5-2.9-30.8-14.4-53.1c4.3,2.3,14.1,8.5,20.5,20.5c4,7.3,5.2,14.3,5.5,18.7
							c1.4-1.4,3.5-3.5,6.6-5c4.6-2.3,8.8-2.7,11.1-2.7c-3.9-16.3-7.6-32.7-11.5-49c5.2,3.3,15.6,11.1,22.6,25.5
							c5.3,11.1,6.3,21,6.6,26.6c7.3,4,17.3,10.9,23.2,22.6c6.6,13.4,3.3,23.5,5.3,34.9c2.4,12.8,12.2,29.8,46.2,46.4
							c1.4,2.2,5.8,9.1,3.5,15.6c-3.2,8.5-17.3,14.1-33.6,8.6c-17.4-6.2-34.9-12.2-52.1-18.6c-2.9,21.6-5.5,43.5-8.4,65
							c2.2,33.4,4.5,67,6.6,100.4c0.1,0.7,0.3,1.7,1.2,2.2c0.7,0.4,1.6,0.3,1.9,0.3c3.5-0.6,32.8-12.5,48.7-16.1
							c4.9-1.2,12.1-2.3,14.7,1c1.2,1.6,1,4,0.7,5.6c-5.8,16.1-11.5,32.3-17.1,48.4c-5.9,5.3-9.8,7.2-12.2,5.9
							c-3.7-2-2.7-12.8,3.2-32.3c-21.7,8.5-38.6,14.5-48.4,17.7c-2.6,0.9-7.9,2.4-11.7-0.1c-2.9-2.2-3.6-6-3.9-8.2
							c-2.2-15.4-3.6-38.2-3.9-41.6c-8.6,9.8-17.9,19.2-26.1,29.2c-11.2,13.5-22.5,27.4-26.1,29.2c-9.9,7.2-20.3,14.5-30.2,21.7
							c-4.5,33-8.6,58-11.7,68c-0.7,2.4-2.2,6.8-6,9.5c-5,3.2-10.9,2-12.8,1.6c-10.5-2-39.6-2.7-82.8-2.4c-0.4,7.2,0.1,12.8,1,16.7
							c0.3,2,1,4.3,0.7,7.6s-1.4,9.4-4.2,10.1c-3,0.7-6.9-5.9-9.8-10.7c-5.3-9.1-3.7-10.9-9.1-29.8c-0.4-1.6-1.6-5,0.3-7.5
							c1.3-1.7,3.5-2.2,4.5-2.3c5.2-0.6,36.7-4.9,80.1-10.7c0.3,0,0.9,0,1.4-0.3c0.9-0.6,1.3-1.6,1.2-2.9
							c-1.2-24.2-2.4-48.4-3.6-72.6c-2.7,19.7-5.3,39.8-8.1,59.5c-1,7.3-2,14.8-2.9,22c-14.1-2.7-28.4-5.6-43.1-9.1
							c-15.4-3.5-30.5-7.2-44.9-11.1c0.3,1.6,1.2,4.3,2.2,7.6c2.2,6.3,3.3,7.5,3.9,10.4c1.4,6.6-1,15.1-4.6,16
							c-4.8,1.2-11.1-10.2-13.5-15.6c-0.7-1.6-1.2-2.9-4.2-14.1c-4.5-16.7-4.8-19.7-2.9-21.7c1-1,3.3-2.7,9.2-1.7
							c7.2,1,22.9,3.2,29.8,4c12.1,1.6,29.1,4,41.2,5.6c0.3,0,1.4,0.3,2.4-0.6c1.4-1,1.4-2.7,1.4-2.9
							C275.9,621.8,276.3,609.7,277.9,560.2z"/>
					</defs>
					<clipPath id="SVGID_8_">
						<use xlink:href="#SVGID_7_"  style="overflow:visible;"/>
					</clipPath>
					<path class="st5" d="M443.4,532.1l11.5-11.5c1.2,17.7,2.6,35.3,3.9,53.1c21.3-6.6,42.8-13.1,63.9-19.7
						c-3.6,25.6-8.2,38.9-13.8,39.3c-1.6,0-2.9-0.7-4.8-2.2c-15.7,4.8-31.7,9.8-47.4,14.8l-13.5-5.5l-6.5-51.3L443.4,532.1z"/>
				</g>
			</g>
		</g>
		<g>
			<g>
				<g>
					<defs>
						<path id="SVGID_9_" d="M277.9,560.2c-38.6,1.2-73.7-23.6-85.8-60.1c-12.2-36.3,1-76.9,32.4-99.1c4.6-1.4,8.8-1,10.1,1
							c1.6,2.4-0.4,8.5-7.2,12.5c-24.2,20-33.4,52.9-22.9,81.4c11.2,31.1,43.2,51.3,77.6,47.5c5.9-8.5,15.4-20.5,29.1-32.7
							c18.3-16.3,35.1-24.3,39.3-26.5c46.2-23.9,71.7-68.8,95.9-104c3.3-4.9,5.9-8.9,7.9-11.7c-7.3-6.6-17.3-17.3-21.3-32.8
							c-4.6-16,0.1-26.1-0.3-43.8c-0.3-12.5-2.9-30.8-14.4-53.1c4.3,2.3,14.1,8.5,20.5,20.5c4,7.3,5.2,14.3,5.5,18.7
							c1.4-1.4,3.5-3.5,6.6-5c4.6-2.3,8.8-2.7,11.1-2.7c-3.9-16.3-7.6-32.7-11.5-49c5.2,3.3,15.6,11.1,22.6,25.5
							c5.3,11.1,6.3,21,6.6,26.6c7.3,4,17.3,10.9,23.2,22.6c6.6,13.4,3.3,23.5,5.3,34.9c2.4,12.8,12.2,29.8,46.2,46.4
							c1.4,2.2,5.8,9.1,3.5,15.6c-3.2,8.5-17.3,14.1-33.6,8.6c-17.4-6.2-34.9-12.2-52.1-18.6c-2.9,21.6-5.5,43.5-8.4,65
							c2.2,33.4,4.5,67,6.6,100.4c0.1,0.7,0.3,1.7,1.2,2.2c0.7,0.4,1.6,0.3,1.9,0.3c3.5-0.6,32.8-12.5,48.7-16.1
							c4.9-1.2,12.1-2.3,14.7,1c1.2,1.6,1,4,0.7,5.6c-5.8,16.1-11.5,32.3-17.1,48.4c-5.9,5.3-9.8,7.2-12.2,5.9
							c-3.7-2-2.7-12.8,3.2-32.3c-21.7,8.5-38.6,14.5-48.4,17.7c-2.6,0.9-7.9,2.4-11.7-0.1c-2.9-2.2-3.6-6-3.9-8.2
							c-2.2-15.4-3.6-38.2-3.9-41.6c-8.6,9.8-17.9,19.2-26.1,29.2c-11.2,13.5-22.5,27.4-26.1,29.2c-9.9,7.2-20.3,14.5-30.2,21.7
							c-4.5,33-8.6,58-11.7,68c-0.7,2.4-2.2,6.8-6,9.5c-5,3.2-10.9,2-12.8,1.6c-10.5-2-39.6-2.7-82.8-2.4c-0.4,7.2,0.1,12.8,1,16.7
							c0.3,2,1,4.3,0.7,7.6s-1.4,9.4-4.2,10.1c-3,0.7-6.9-5.9-9.8-10.7c-5.3-9.1-3.7-10.9-9.1-29.8c-0.4-1.6-1.6-5,0.3-7.5
							c1.3-1.7,3.5-2.2,4.5-2.3c5.2-0.6,36.7-4.9,80.1-10.7c0.3,0,0.9,0,1.4-0.3c0.9-0.6,1.3-1.6,1.2-2.9
							c-1.2-24.2-2.4-48.4-3.6-72.6c-2.7,19.7-5.3,39.8-8.1,59.5c-1,7.3-2,14.8-2.9,22c-14.1-2.7-28.4-5.6-43.1-9.1
							c-15.4-3.5-30.5-7.2-44.9-11.1c0.3,1.6,1.2,4.3,2.2,7.6c2.2,6.3,3.3,7.5,3.9,10.4c1.4,6.6-1,15.1-4.6,16
							c-4.8,1.2-11.1-10.2-13.5-15.6c-0.7-1.6-1.2-2.9-4.2-14.1c-4.5-16.7-4.8-19.7-2.9-21.7c1-1,3.3-2.7,9.2-1.7
							c7.2,1,22.9,3.2,29.8,4c12.1,1.6,29.1,4,41.2,5.6c0.3,0,1.4,0.3,2.4-0.6c1.4-1,1.4-2.7,1.4-2.9
							C275.9,621.8,276.3,609.7,277.9,560.2z"/>
					</defs>
					<clipPath id="SVGID_10_">
						<use xlink:href="#SVGID_9_"  style="overflow:visible;"/>
					</clipPath>
					<path class="st6" d="M553.4,403.6c-11.7-5-23-9.9-34.9-15.1c-13.5-5.9-20.3-12.1-25.6-21c-8.5-13.8-1.3-21-7.6-42.5
						c-2.2-7.9-9.8-33.7-27.5-37.4c-13.3-2.7-25.1,8.4-27.4,10.4c-14.7,13.7-12.8,33.1-12.8,34.4c1.7,16.7,14.3,31.3,31.7,36.7
						c2.3-0.1,2.9-0.1,5-0.4c0.1-2.9,0.3-6,0.4-9.1c2.7-7.2,10.4-10.2,15.8-7.6c4,2,6.6,6.9,5.9,12.2c-1.4,6.3-2.9,12.7-4.2,19
						l32.5,32.5l48.4,2.3L553.4,403.6z"/>
				</g>
			</g>
		</g>
		<g>
			<g>
				<g>
					<defs>
						<path id="SVGID_11_" d="M277.9,560.2c-38.6,1.2-73.7-23.6-85.8-60.1c-12.2-36.3,1-76.9,32.4-99.1c4.6-1.4,8.8-1,10.1,1
							c1.6,2.4-0.4,8.5-7.2,12.5c-24.2,20-33.4,52.9-22.9,81.4c11.2,31.1,43.2,51.3,77.6,47.5c5.9-8.5,15.4-20.5,29.1-32.7
							c18.3-16.3,35.1-24.3,39.3-26.5c46.2-23.9,71.7-68.8,95.9-104c3.3-4.9,5.9-8.9,7.9-11.7c-7.3-6.6-17.3-17.3-21.3-32.8
							c-4.6-16,0.1-26.1-0.3-43.8c-0.3-12.5-2.9-30.8-14.4-53.1c4.3,2.3,14.1,8.5,20.5,20.5c4,7.3,5.2,14.3,5.5,18.7
							c1.4-1.4,3.5-3.5,6.6-5c4.6-2.3,8.8-2.7,11.1-2.7c-3.9-16.3-7.6-32.7-11.5-49c5.2,3.3,15.6,11.1,22.6,25.5
							c5.3,11.1,6.3,21,6.6,26.6c7.3,4,17.3,10.9,23.2,22.6c6.6,13.4,3.3,23.5,5.3,34.9c2.4,12.8,12.2,29.8,46.2,46.4
							c1.4,2.2,5.8,9.1,3.5,15.6c-3.2,8.5-17.3,14.1-33.6,8.6c-17.4-6.2-34.9-12.2-52.1-18.6c-2.9,21.6-5.5,43.5-8.4,65
							c2.2,33.4,4.5,67,6.6,100.4c0.1,0.7,0.3,1.7,1.2,2.2c0.7,0.4,1.6,0.3,1.9,0.3c3.5-0.6,32.8-12.5,48.7-16.1
							c4.9-1.2,12.1-2.3,14.7,1c1.2,1.6,1,4,0.7,5.6c-5.8,16.1-11.5,32.3-17.1,48.4c-5.9,5.3-9.8,7.2-12.2,5.9
							c-3.7-2-2.7-12.8,3.2-32.3c-21.7,8.5-38.6,14.5-48.4,17.7c-2.6,0.9-7.9,2.4-11.7-0.1c-2.9-2.2-3.6-6-3.9-8.2
							c-2.2-15.4-3.6-38.2-3.9-41.6c-8.6,9.8-17.9,19.2-26.1,29.2c-11.2,13.5-22.5,27.4-26.1,29.2c-9.9,7.2-20.3,14.5-30.2,21.7
							c-4.5,33-8.6,58-11.7,68c-0.7,2.4-2.2,6.8-6,9.5c-5,3.2-10.9,2-12.8,1.6c-10.5-2-39.6-2.7-82.8-2.4c-0.4,7.2,0.1,12.8,1,16.7
							c0.3,2,1,4.3,0.7,7.6s-1.4,9.4-4.2,10.1c-3,0.7-6.9-5.9-9.8-10.7c-5.3-9.1-3.7-10.9-9.1-29.8c-0.4-1.6-1.6-5,0.3-7.5
							c1.3-1.7,3.5-2.2,4.5-2.3c5.2-0.6,36.7-4.9,80.1-10.7c0.3,0,0.9,0,1.4-0.3c0.9-0.6,1.3-1.6,1.2-2.9
							c-1.2-24.2-2.4-48.4-3.6-72.6c-2.7,19.7-5.3,39.8-8.1,59.5c-1,7.3-2,14.8-2.9,22c-14.1-2.7-28.4-5.6-43.1-9.1
							c-15.4-3.5-30.5-7.2-44.9-11.1c0.3,1.6,1.2,4.3,2.2,7.6c2.2,6.3,3.3,7.5,3.9,10.4c1.4,6.6-1,15.1-4.6,16
							c-4.8,1.2-11.1-10.2-13.5-15.6c-0.7-1.6-1.2-2.9-4.2-14.1c-4.5-16.7-4.8-19.7-2.9-21.7c1-1,3.3-2.7,9.2-1.7
							c7.2,1,22.9,3.2,29.8,4c12.1,1.6,29.1,4,41.2,5.6c0.3,0,1.4,0.3,2.4-0.6c1.4-1,1.4-2.7,1.4-2.9
							C275.9,621.8,276.3,609.7,277.9,560.2z"/>
					</defs>
					<clipPath id="SVGID_12_">
						<use xlink:href="#SVGID_11_"  style="overflow:visible;"/>
					</clipPath>
					<path class="st7" d="M187.6,635.6v-9.8c2.3,0.1,6,0.7,9.4,3.5c2,1.6,3,3.6,3.6,4.8c9.4,18,12.1,31.7,12.1,31.7
						c1.6,8.5,1.4,12-0.1,15.1c-1.4,2.9-3.7,4.8-5.3,5.9c-10.9-14.8-16.1-27.9-17.6-34C188,646.3,187.6,640.5,187.6,635.6z"/>
				</g>
			</g>
		</g>
		<g>
			<g>
				<g>
					<defs>
						<path id="SVGID_13_" d="M277.9,560.2c-38.6,1.2-73.7-23.6-85.8-60.1c-12.2-36.3,1-76.9,32.4-99.1c4.6-1.4,8.8-1,10.1,1
							c1.6,2.4-0.4,8.5-7.2,12.5c-24.2,20-33.4,52.9-22.9,81.4c11.2,31.1,43.2,51.3,77.6,47.5c5.9-8.5,15.4-20.5,29.1-32.7
							c18.3-16.3,35.1-24.3,39.3-26.5c46.2-23.9,71.7-68.8,95.9-104c3.3-4.9,5.9-8.9,7.9-11.7c-7.3-6.6-17.3-17.3-21.3-32.8
							c-4.6-16,0.1-26.1-0.3-43.8c-0.3-12.5-2.9-30.8-14.4-53.1c4.3,2.3,14.1,8.5,20.5,20.5c4,7.3,5.2,14.3,5.5,18.7
							c1.4-1.4,3.5-3.5,6.6-5c4.6-2.3,8.8-2.7,11.1-2.7c-3.9-16.3-7.6-32.7-11.5-49c5.2,3.3,15.6,11.1,22.6,25.5
							c5.3,11.1,6.3,21,6.6,26.6c7.3,4,17.3,10.9,23.2,22.6c6.6,13.4,3.3,23.5,5.3,34.9c2.4,12.8,12.2,29.8,46.2,46.4
							c1.4,2.2,5.8,9.1,3.5,15.6c-3.2,8.5-17.3,14.1-33.6,8.6c-17.4-6.2-34.9-12.2-52.1-18.6c-2.9,21.6-5.5,43.5-8.4,65
							c2.2,33.4,4.5,67,6.6,100.4c0.1,0.7,0.3,1.7,1.2,2.2c0.7,0.4,1.6,0.3,1.9,0.3c3.5-0.6,32.8-12.5,48.7-16.1
							c4.9-1.2,12.1-2.3,14.7,1c1.2,1.6,1,4,0.7,5.6c-5.8,16.1-11.5,32.3-17.1,48.4c-5.9,5.3-9.8,7.2-12.2,5.9
							c-3.7-2-2.7-12.8,3.2-32.3c-21.7,8.5-38.6,14.5-48.4,17.7c-2.6,0.9-7.9,2.4-11.7-0.1c-2.9-2.2-3.6-6-3.9-8.2
							c-2.2-15.4-3.6-38.2-3.9-41.6c-8.6,9.8-17.9,19.2-26.1,29.2c-11.2,13.5-22.5,27.4-26.1,29.2c-9.9,7.2-20.3,14.5-30.2,21.7
							c-4.5,33-8.6,58-11.7,68c-0.7,2.4-2.2,6.8-6,9.5c-5,3.2-10.9,2-12.8,1.6c-10.5-2-39.6-2.7-82.8-2.4c-0.4,7.2,0.1,12.8,1,16.7
							c0.3,2,1,4.3,0.7,7.6s-1.4,9.4-4.2,10.1c-3,0.7-6.9-5.9-9.8-10.7c-5.3-9.1-3.7-10.9-9.1-29.8c-0.4-1.6-1.6-5,0.3-7.5
							c1.3-1.7,3.5-2.2,4.5-2.3c5.2-0.6,36.7-4.9,80.1-10.7c0.3,0,0.9,0,1.4-0.3c0.9-0.6,1.3-1.6,1.2-2.9
							c-1.2-24.2-2.4-48.4-3.6-72.6c-2.7,19.7-5.3,39.8-8.1,59.5c-1,7.3-2,14.8-2.9,22c-14.1-2.7-28.4-5.6-43.1-9.1
							c-15.4-3.5-30.5-7.2-44.9-11.1c0.3,1.6,1.2,4.3,2.2,7.6c2.2,6.3,3.3,7.5,3.9,10.4c1.4,6.6-1,15.1-4.6,16
							c-4.8,1.2-11.1-10.2-13.5-15.6c-0.7-1.6-1.2-2.9-4.2-14.1c-4.5-16.7-4.8-19.7-2.9-21.7c1-1,3.3-2.7,9.2-1.7
							c7.2,1,22.9,3.2,29.8,4c12.1,1.6,29.1,4,41.2,5.6c0.3,0,1.4,0.3,2.4-0.6c1.4-1,1.4-2.7,1.4-2.9
							C275.9,621.8,276.3,609.7,277.9,560.2z"/>
					</defs>
					<clipPath id="SVGID_14_">
						<use xlink:href="#SVGID_13_"  style="overflow:visible;"/>
					</clipPath>
					<path class="st8" d="M234.3,679.6c-1-3.9-3.7-6.3-6.8-6.3c-2.2,0.1-3.7,1.6-4.2,2.2c2.9,15.8,5.9,31.7,8.6,47.4l12.1,5.2
						l2.2-2.9C242.3,709.8,238.3,694.7,234.3,679.6z"/>
				</g>
			</g>
		</g>
		<g>
			<g>
				<g>
					<defs>
						<path id="SVGID_15_" d="M277.9,560.2c-38.6,1.2-73.7-23.6-85.8-60.1c-12.2-36.3,1-76.9,32.4-99.1c4.6-1.4,8.8-1,10.1,1
							c1.6,2.4-0.4,8.5-7.2,12.5c-24.2,20-33.4,52.9-22.9,81.4c11.2,31.1,43.2,51.3,77.6,47.5c5.9-8.5,15.4-20.5,29.1-32.7
							c18.3-16.3,35.1-24.3,39.3-26.5c46.2-23.9,71.7-68.8,95.9-104c3.3-4.9,5.9-8.9,7.9-11.7c-7.3-6.6-17.3-17.3-21.3-32.8
							c-4.6-16,0.1-26.1-0.3-43.8c-0.3-12.5-2.9-30.8-14.4-53.1c4.3,2.3,14.1,8.5,20.5,20.5c4,7.3,5.2,14.3,5.5,18.7
							c1.4-1.4,3.5-3.5,6.6-5c4.6-2.3,8.8-2.7,11.1-2.7c-3.9-16.3-7.6-32.7-11.5-49c5.2,3.3,15.6,11.1,22.6,25.5
							c5.3,11.1,6.3,21,6.6,26.6c7.3,4,17.3,10.9,23.2,22.6c6.6,13.4,3.3,23.5,5.3,34.9c2.4,12.8,12.2,29.8,46.2,46.4
							c1.4,2.2,5.8,9.1,3.5,15.6c-3.2,8.5-17.3,14.1-33.6,8.6c-17.4-6.2-34.9-12.2-52.1-18.6c-2.9,21.6-5.5,43.5-8.4,65
							c2.2,33.4,4.5,67,6.6,100.4c0.1,0.7,0.3,1.7,1.2,2.2c0.7,0.4,1.6,0.3,1.9,0.3c3.5-0.6,32.8-12.5,48.7-16.1
							c4.9-1.2,12.1-2.3,14.7,1c1.2,1.6,1,4,0.7,5.6c-5.8,16.1-11.5,32.3-17.1,48.4c-5.9,5.3-9.8,7.2-12.2,5.9
							c-3.7-2-2.7-12.8,3.2-32.3c-21.7,8.5-38.6,14.5-48.4,17.7c-2.6,0.9-7.9,2.4-11.7-0.1c-2.9-2.2-3.6-6-3.9-8.2
							c-2.2-15.4-3.6-38.2-3.9-41.6c-8.6,9.8-17.9,19.2-26.1,29.2c-11.2,13.5-22.5,27.4-26.1,29.2c-9.9,7.2-20.3,14.5-30.2,21.7
							c-4.5,33-8.6,58-11.7,68c-0.7,2.4-2.2,6.8-6,9.5c-5,3.2-10.9,2-12.8,1.6c-10.5-2-39.6-2.7-82.8-2.4c-0.4,7.2,0.1,12.8,1,16.7
							c0.3,2,1,4.3,0.7,7.6s-1.4,9.4-4.2,10.1c-3,0.7-6.9-5.9-9.8-10.7c-5.3-9.1-3.7-10.9-9.1-29.8c-0.4-1.6-1.6-5,0.3-7.5
							c1.3-1.7,3.5-2.2,4.5-2.3c5.2-0.6,36.7-4.9,80.1-10.7c0.3,0,0.9,0,1.4-0.3c0.9-0.6,1.3-1.6,1.2-2.9
							c-1.2-24.2-2.4-48.4-3.6-72.6c-2.7,19.7-5.3,39.8-8.1,59.5c-1,7.3-2,14.8-2.9,22c-14.1-2.7-28.4-5.6-43.1-9.1
							c-15.4-3.5-30.5-7.2-44.9-11.1c0.3,1.6,1.2,4.3,2.2,7.6c2.2,6.3,3.3,7.5,3.9,10.4c1.4,6.6-1,15.1-4.6,16
							c-4.8,1.2-11.1-10.2-13.5-15.6c-0.7-1.6-1.2-2.9-4.2-14.1c-4.5-16.7-4.8-19.7-2.9-21.7c1-1,3.3-2.7,9.2-1.7
							c7.2,1,22.9,3.2,29.8,4c12.1,1.6,29.1,4,41.2,5.6c0.3,0,1.4,0.3,2.4-0.6c1.4-1,1.4-2.7,1.4-2.9
							C275.9,621.8,276.3,609.7,277.9,560.2z"/>
					</defs>
					<clipPath id="SVGID_16_">
						<use xlink:href="#SVGID_15_"  style="overflow:visible;"/>
					</clipPath>
					<polygon class="st9" points="284.5,691.1 296.3,683.2 350.8,686.3 340.6,697.8 					"/>
				</g>
			</g>
		</g>
		<g>
			<g>
				<g>
					<defs>
						<path id="SVGID_17_" d="M277.9,560.2c-38.6,1.2-73.7-23.6-85.8-60.1c-12.2-36.3,1-76.9,32.4-99.1c4.6-1.4,8.8-1,10.1,1
							c1.6,2.4-0.4,8.5-7.2,12.5c-24.2,20-33.4,52.9-22.9,81.4c11.2,31.1,43.2,51.3,77.6,47.5c5.9-8.5,15.4-20.5,29.1-32.7
							c18.3-16.3,35.1-24.3,39.3-26.5c46.2-23.9,71.7-68.8,95.9-104c3.3-4.9,5.9-8.9,7.9-11.7c-7.3-6.6-17.3-17.3-21.3-32.8
							c-4.6-16,0.1-26.1-0.3-43.8c-0.3-12.5-2.9-30.8-14.4-53.1c4.3,2.3,14.1,8.5,20.5,20.5c4,7.3,5.2,14.3,5.5,18.7
							c1.4-1.4,3.5-3.5,6.6-5c4.6-2.3,8.8-2.7,11.1-2.7c-3.9-16.3-7.6-32.7-11.5-49c5.2,3.3,15.6,11.1,22.6,25.5
							c5.3,11.1,6.3,21,6.6,26.6c7.3,4,17.3,10.9,23.2,22.6c6.6,13.4,3.3,23.5,5.3,34.9c2.4,12.8,12.2,29.8,46.2,46.4
							c1.4,2.2,5.8,9.1,3.5,15.6c-3.2,8.5-17.3,14.1-33.6,8.6c-17.4-6.2-34.9-12.2-52.1-18.6c-2.9,21.6-5.5,43.5-8.4,65
							c2.2,33.4,4.5,67,6.6,100.4c0.1,0.7,0.3,1.7,1.2,2.2c0.7,0.4,1.6,0.3,1.9,0.3c3.5-0.6,32.8-12.5,48.7-16.1
							c4.9-1.2,12.1-2.3,14.7,1c1.2,1.6,1,4,0.7,5.6c-5.8,16.1-11.5,32.3-17.1,48.4c-5.9,5.3-9.8,7.2-12.2,5.9
							c-3.7-2-2.7-12.8,3.2-32.3c-21.7,8.5-38.6,14.5-48.4,17.7c-2.6,0.9-7.9,2.4-11.7-0.1c-2.9-2.2-3.6-6-3.9-8.2
							c-2.2-15.4-3.6-38.2-3.9-41.6c-8.6,9.8-17.9,19.2-26.1,29.2c-11.2,13.5-22.5,27.4-26.1,29.2c-9.9,7.2-20.3,14.5-30.2,21.7
							c-4.5,33-8.6,58-11.7,68c-0.7,2.4-2.2,6.8-6,9.5c-5,3.2-10.9,2-12.8,1.6c-10.5-2-39.6-2.7-82.8-2.4c-0.4,7.2,0.1,12.8,1,16.7
							c0.3,2,1,4.3,0.7,7.6s-1.4,9.4-4.2,10.1c-3,0.7-6.9-5.9-9.8-10.7c-5.3-9.1-3.7-10.9-9.1-29.8c-0.4-1.6-1.6-5,0.3-7.5
							c1.3-1.7,3.5-2.2,4.5-2.3c5.2-0.6,36.7-4.9,80.1-10.7c0.3,0,0.9,0,1.4-0.3c0.9-0.6,1.3-1.6,1.2-2.9
							c-1.2-24.2-2.4-48.4-3.6-72.6c-2.7,19.7-5.3,39.8-8.1,59.5c-1,7.3-2,14.8-2.9,22c-14.1-2.7-28.4-5.6-43.1-9.1
							c-15.4-3.5-30.5-7.2-44.9-11.1c0.3,1.6,1.2,4.3,2.2,7.6c2.2,6.3,3.3,7.5,3.9,10.4c1.4,6.6-1,15.1-4.6,16
							c-4.8,1.2-11.1-10.2-13.5-15.6c-0.7-1.6-1.2-2.9-4.2-14.1c-4.5-16.7-4.8-19.7-2.9-21.7c1-1,3.3-2.7,9.2-1.7
							c7.2,1,22.9,3.2,29.8,4c12.1,1.6,29.1,4,41.2,5.6c0.3,0,1.4,0.3,2.4-0.6c1.4-1,1.4-2.7,1.4-2.9
							C275.9,621.8,276.3,609.7,277.9,560.2z"/>
					</defs>
					<clipPath id="SVGID_18_">
						<use xlink:href="#SVGID_17_"  style="overflow:visible;"/>
					</clipPath>
					<path class="st10" d="M246.1,658.4l14.8-4.8c14.1,2.9,27.9,5.9,42.1,8.8c-5.9,0.9-11.7,1.6-17.7,2.4
						C272.1,662.6,259.2,660.5,246.1,658.4z"/>
				</g>
			</g>
		</g>
	</g>
	<g id="helmet_brace_1_">
		<path class="st11" d="M450.4,374.8l-5.2,7.3c-0.7-1.4-2.9-5.3-2-10.7c0.1-0.7,0.9-5.3,4.6-9.4c5.3-5.3,14.1-7.1,21.2-4.2
			c6.3,2.6,10.7,8.5,11.7,13c0.1,0.4,0.1,0.7,0.3,0.9c0.4,2.4,1,8.1-2.9,12.5c-2.4,2.9-5.8,3.7-7.2,4c0.1-2.6,0.7-5.2,1-7.6
			c0.7-5.3-1.7-10.2-5.9-12.2c-3.7-2-7.6-0.7-8.8-0.3C452.6,369.9,450.6,374.1,450.4,374.8z"/>
	</g>
	<g id="dog_details_1_">
		<g id="dog_wire_1_">
			<path class="st12" d="M395.1,225.7c-28.8-4.6-56.9,6.6-71.9,28.7c-16,23.5-15.4,56.7,0,76c26.1,32.7,89.6,18.9,106.9,47.8
				c1.6,2.7,5.9,9.8,4.8,18.9c-1.4,11.8-11.5,19.2-14.7,21.3"/>
		</g>
		<g id="dog_bag_1_">
			<g>
				<g>
					<g>
						<defs>
							<path id="SVGID_19_" d="M447.9,416.7c-0.9-5.3-3.2-9.2-5-11.8c-6-1.4-13.4-2.6-21.7-2.9c-15.7-0.6-28.8,2.3-37.9,5.3
								c-26.6,22.5-53.4,44.9-80.1,67.5c-0.7,2.2-2.6,9.5,1.3,16.1c1,1.6,3.6,5.8,12.7,9.1c14.3,5.5,27.8,3.3,37.3,1.6
								c12-2.2,20.6-5.9,23.8-7.2c19.2-8.4,30.5-19.9,42.3-32C437.9,444.5,450.3,431.8,447.9,416.7z"/>
						</defs>
						<clipPath id="SVGID_20_">
							<use xlink:href="#SVGID_19_"  style="overflow:visible;"/>
						</clipPath>
						<ellipse class="st13" cx="376.1" cy="447.7" rx="83.2" ry="85.4"/>
					</g>
				</g>
			</g>
			<g>
				<g>
					<g>
						<defs>
							<path id="SVGID_21_" d="M447.9,416.7c-0.9-5.3-3.2-9.2-5-11.8c-6-1.4-13.4-2.6-21.7-2.9c-15.7-0.6-28.8,2.3-37.9,5.3
								c-26.6,22.5-53.4,44.9-80.1,67.5c-0.7,2.2-2.6,9.5,1.3,16.1c1,1.6,3.6,5.8,12.7,9.1c14.3,5.5,27.8,3.3,37.3,1.6
								c12-2.2,20.6-5.9,23.8-7.2c19.2-8.4,30.5-19.9,42.3-32C437.9,444.5,450.3,431.8,447.9,416.7z"/>
						</defs>
						<clipPath id="SVGID_22_">
							<use xlink:href="#SVGID_21_"  style="overflow:visible;"/>
						</clipPath>
						<path class="st14" d="M442.8,404.9c-8.4,11.2-19.9,24.8-35.6,38.2c-13.4,11.4-26.4,19.7-37.4,25.8c1.7,11.7,3.5,23.3,5.2,35
							h16l59.3-68.7l-0.7-30.4L442.8,404.9L442.8,404.9z"/>
					</g>
				</g>
			</g>
			<g>
				<g>
					<g>
						<defs>
							<path id="SVGID_23_" d="M447.9,416.7c-0.9-5.3-3.2-9.2-5-11.8c-6-1.4-13.4-2.6-21.7-2.9c-15.7-0.6-28.8,2.3-37.9,5.3
								c-26.6,22.5-53.4,44.9-80.1,67.5c-0.7,2.2-2.6,9.5,1.3,16.1c1,1.6,3.6,5.8,12.7,9.1c14.3,5.5,27.8,3.3,37.3,1.6
								c12-2.2,20.6-5.9,23.8-7.2c19.2-8.4,30.5-19.9,42.3-32C437.9,444.5,450.3,431.8,447.9,416.7z"/>
						</defs>
						<clipPath id="SVGID_24_">
							<use xlink:href="#SVGID_23_"  style="overflow:visible;"/>
						</clipPath>
						<path class="st15" d="M381.9,495.3l-12.1-26.6c-13.3,6.6-36.1,15.3-60.2,8.2c-2.2-0.7-4.3-1.4-6.5-2.2l-14.5,5.3l18.6,34.4
							c8.4,2,30.7,6.2,54-4.8C370.5,505.4,377.3,500,381.9,495.3z"/>
					</g>
				</g>
			</g>
		</g>
		<g id="dog_plug_1_">
			<path class="st11" d="M406.1,226.6c-0.9,4.8-5.3,8.5-10.7,8.1c-3-0.4-6-1-9.1-1.4c-0.3-0.1-1-0.7-1.4-1.6
				c-0.3-0.9-0.3-1.4-0.3-1.7c1,0,1.7,0.1,2.7,0.1c2.3-0.3,4.2-2,4.8-4c0.6-2.2-0.4-3.9-0.6-4c-0.9-1.4-2-2-2.4-2.2
				c-1.3-0.1-2.7-0.1-4-0.1c0.1-0.3,0.3-1,0.9-1.7c0.9-1,1.7-1.4,2.2-1.4c4-0.1,8.1-0.3,12.1-0.3
				C404.4,217.7,406.8,222.1,406.1,226.6z"/>
		</g>
	</g>
</g>
<g id="cat_1_">
	<g id="cat_helmet_1_">
		<ellipse class="st0" cx="674.3" cy="574" rx="87.9" ry="87.9"/>
		<path class="st1" d="M738.8,542.4c7.6,17.3,6.9,26.5,6.5,30.4c-0.3,2.3-0.9,7.3-2.6,7.6c-2.7,0.4-7.3-11.2-13.5-24.5
			c-3.2-6.9-7.3-17.6-18.4-27.7c-3.2-5.5-0.6-11.5,3-12.7c2.9-1.2,6.3,0.1,8.9,3.5C725.7,523.7,732.4,528.6,738.8,542.4z"/>
		<path class="st1" d="M699.8,509.2"/>
		<path class="st1" d="M739.2,605.8c-1.3-0.1-2.7-1.3-3.2-2.6c-0.3-0.6-0.3-1,0.3-4.9c0.4-2.9,0.4-3.5,1-4.2c0-0.1,1.3-1.3,2.6-1.3
			c2.3,0.3,4,3.9,3.9,6.8C743.7,602.6,741.8,606,739.2,605.8z"/>
	</g>
	<g id="cat_body_1_">
		<g>
			<g>
				<g>
					<defs>
						<path id="SVGID_25_" d="M679.4,740.6c0.7,0.7,4,3.5,18.3-2.6c6.5-2.7,15.8-7.5,26.9-15.8c0.4,6.3,1.3,11.8,2,16
							c1,6.5,2,9.9,4.9,12.4c0.7,0.7,3,2.4,5.2,2c1.6-0.4,3.7-2.3,5.5-12.4c0.7-4.5,2.3-16.6-1.7-38.3c-0.3-1.3,0.3-4.5-1.6-5.9
							c-2-1.4-5.2-0.4-6.5,0c-6.5,2.2-10.2,9.8-34.4,19.4c0-1.2-0.1-2.9-0.3-4.9c-0.7-18.9-1.3-30.1-2.7-37.3
							c-1.4-7.3-5.6-19-19.2-32.1c0.4-0.4,0.4-0.6,0.6-1c7.3-9.8,31.8,6,42.5-3.9c0.4-0.4,2.6-6.3,7.1-17.9
							c1.3-3.9,2.4-6.9,1.6-10.9c-0.4-1.3-1.2-4.9-3.9-7.2c-5.2-4.2-12.4-1.2-16.3-6.2c-0.1-0.1-0.3-0.4-0.3-0.4
							c-1.3-11.5-5.5-15.8-8.4-17.1c0-0.1-0.1-0.1-0.1-0.1l-15.4-5.2c-0.1-0.1-0.4-0.4-0.4-0.4l-18.1-37.7c-0.3-0.7-1.3-0.4-1.3,0.1
							l-6.5,48.7c-0.3,0.6-1,0.9-1.3,0.4l-30.8-30.4c-0.6-0.4-1.4-0.1-1.3,0.7c7.6,46.4,11.2,60.2,13,64.2c0.3,0.4,0.3,0.4,0.3,0.4
							c3.2,7.6,6.5,9.6,9.2,13.7c0.3,0.4,0.1,0.4-0.1,1c-1,8.2-13,20.3-31,30.7c-5.6,3.5-9.6,4.9-13,6.3c-7.1,2.4-12.7,3.2-15,3.5
							c0,0-27.9,3.5-72.6,20c-4,1.4-7.9,3.3-7.9,3.3c-0.4,0.3-1.3,0.7-2.2,1c-2.3,1.3-5.6,3-9.9,5.9c-8.9-4.6-18.1-9.1-27.1-13.7
							c-0.1,0-0.4-0.1-0.4-0.4c-10.5-23.8-21-47.7-31.5-71.6c-0.6-0.7-6.2-10.5-16.1-10.7c-0.7-0.1-5.9-0.1-10.2,3
							c-7.3,5.5-9.1,18.1-4.3,31.3c11.7,23.2,23.6,45.8,35.1,69c0.3,0.7,0.7,1.9,2,2.9c1.9,1.9,4,2.2,4.9,2.3
							c3.9,0.7,20.5,5.5,43.6,11.5c0.4,0.1,0.6,0.4,0.6,0.6c2.3,20,7.2,32.4,11.5,40.2s4.8,9.5,6,17.3c1,6.5,0.3,9.2,0.7,15.8
							c0.4,5.5,4,19.2,5,21.7c0.1,0.3,0.4,1,0.1,1.6c-0.4,0.9-1.3,1.2-1.6,1.3c-4.2,1.3-22.8,12.7-26.8,15.3
							c-4.3,2.7-8.1,5.6-8.1,8.9c0,0.9,0.4,1.4,0.4,1.9c4.8,10.7,11.4,19.3,16.3,28.4c0.7,1.3,1.6,3,3.6,4.2
							c3.7,2.2,8.4,1.2,10.7,0.3c0.6-0.7,1.3-2,1.3-3.2c-0.3-2.2-3-3-5.3-5.5c-1.4-1.3-3.2-3.7-4.3-7.3c-0.4-1.9-1-3.6-1.4-5.5
							c-0.7-2.4-1.4-4.9-2.3-7.2c0-0.4,0-1.2,0.3-2c0.4-1.3,1.4-1.9,2.2-2.3c2-1.2,6.6-3.3,13-6c8.9-3,15.1-6.2,17-8.1
							c0.9-0.9,1.3-1.9,1.3-1.9c1.3-2,1.2-4,1-4.8c-0.1-3,0.4-17.6,1.3-37.7c0.4-0.6,0.7-1,1.3-1.3c3.7-3.2,10.2-0.7,10.9-0.4
							c10.7,21,19,36,21.6,39.6c1.7,2.3,3.6,4.2,3.6,4.2c2.2,2.2,3.2,3.3,5.2,4c4.3,1.9,9.1-1,14.1-3.9c2.9-1.9,4.8-3,4.9-4.8
							c0.1-2.2-3-3.9-3.6-4.2c-3,0.4-6,0.7-9.1,1.2c-0.7-0.4-2-1.3-3.3-2.6c0,0-1.9-1.7-3.6-4.2c-2-3.2-9.2-16.6-18-35.4
							c11.5-3,20.7-6.3,26.6-8.4c21.9-8.1,55-20.5,83.2-49.3c5.5-5.6,9.4-10.4,11.5-13.1c-0.1,3-0.1,7.5,0,12.7
							C677.7,738.2,678.3,739.6,679.4,740.6z"/>
					</defs>
					<clipPath id="SVGID_26_">
						<use xlink:href="#SVGID_25_"  style="overflow:visible;"/>
					</clipPath>
					<path id="SKIN_1_" class="st16" d="M658.8,519.3c61.6,1.9,112.9,106.7,93,129.9c-7.2,8.2-27.1,9.8-77.6-12.1
						c-0.9-1.9-3.6-7.2-9.5-9.6c-7.5-3.2-17.1-0.6-23.8,6.8c-33-33.7-41.2-73.7-25.8-95.6C628.7,518.7,657,519.3,658.8,519.3z"/>
				</g>
			</g>
		</g>
		<g>
			<g>
				<g>
					<defs>
						<path id="SVGID_27_" d="M679.4,740.6c0.7,0.7,4,3.5,18.3-2.6c6.5-2.7,15.8-7.5,26.9-15.8c0.4,6.3,1.3,11.8,2,16
							c1,6.5,2,9.9,4.9,12.4c0.7,0.7,3,2.4,5.2,2c1.6-0.4,3.7-2.3,5.5-12.4c0.7-4.5,2.3-16.6-1.7-38.3c-0.3-1.3,0.3-4.5-1.6-5.9
							c-2-1.4-5.2-0.4-6.5,0c-6.5,2.2-10.2,9.8-34.4,19.4c0-1.2-0.1-2.9-0.3-4.9c-0.7-18.9-1.3-30.1-2.7-37.3
							c-1.4-7.3-5.6-19-19.2-32.1c0.4-0.4,0.4-0.6,0.6-1c7.3-9.8,31.8,6,42.5-3.9c0.4-0.4,2.6-6.3,7.1-17.9
							c1.3-3.9,2.4-6.9,1.6-10.9c-0.4-1.3-1.2-4.9-3.9-7.2c-5.2-4.2-12.4-1.2-16.3-6.2c-0.1-0.1-0.3-0.4-0.3-0.4
							c-1.3-11.5-5.5-15.8-8.4-17.1c0-0.1-0.1-0.1-0.1-0.1l-15.4-5.2c-0.1-0.1-0.4-0.4-0.4-0.4l-18.1-37.7c-0.3-0.7-1.3-0.4-1.3,0.1
							l-6.5,48.7c-0.3,0.6-1,0.9-1.3,0.4l-30.8-30.4c-0.6-0.4-1.4-0.1-1.3,0.7c7.6,46.4,11.2,60.2,13,64.2c0.3,0.4,0.3,0.4,0.3,0.4
							c3.2,7.6,6.5,9.6,9.2,13.7c0.3,0.4,0.1,0.4-0.1,1c-1,8.2-13,20.3-31,30.7c-5.6,3.5-9.6,4.9-13,6.3c-7.1,2.4-12.7,3.2-15,3.5
							c0,0-27.9,3.5-72.6,20c-4,1.4-7.9,3.3-7.9,3.3c-0.4,0.3-1.3,0.7-2.2,1c-2.3,1.3-5.6,3-9.9,5.9c-8.9-4.6-18.1-9.1-27.1-13.7
							c-0.1,0-0.4-0.1-0.4-0.4c-10.5-23.8-21-47.7-31.5-71.6c-0.6-0.7-6.2-10.5-16.1-10.7c-0.7-0.1-5.9-0.1-10.2,3
							c-7.3,5.5-9.1,18.1-4.3,31.3c11.7,23.2,23.6,45.8,35.1,69c0.3,0.7,0.7,1.9,2,2.9c1.9,1.9,4,2.2,4.9,2.3
							c3.9,0.7,20.5,5.5,43.6,11.5c0.4,0.1,0.6,0.4,0.6,0.6c2.3,20,7.2,32.4,11.5,40.2s4.8,9.5,6,17.3c1,6.5,0.3,9.2,0.7,15.8
							c0.4,5.5,4,19.2,5,21.7c0.1,0.3,0.4,1,0.1,1.6c-0.4,0.9-1.3,1.2-1.6,1.3c-4.2,1.3-22.8,12.7-26.8,15.3
							c-4.3,2.7-8.1,5.6-8.1,8.9c0,0.9,0.4,1.4,0.4,1.9c4.8,10.7,11.4,19.3,16.3,28.4c0.7,1.3,1.6,3,3.6,4.2
							c3.7,2.2,8.4,1.2,10.7,0.3c0.6-0.7,1.3-2,1.3-3.2c-0.3-2.2-3-3-5.3-5.5c-1.4-1.3-3.2-3.7-4.3-7.3c-0.4-1.9-1-3.6-1.4-5.5
							c-0.7-2.4-1.4-4.9-2.3-7.2c0-0.4,0-1.2,0.3-2c0.4-1.3,1.4-1.9,2.2-2.3c2-1.2,6.6-3.3,13-6c8.9-3,15.1-6.2,17-8.1
							c0.9-0.9,1.3-1.9,1.3-1.9c1.3-2,1.2-4,1-4.8c-0.1-3,0.4-17.6,1.3-37.7c0.4-0.6,0.7-1,1.3-1.3c3.7-3.2,10.2-0.7,10.9-0.4
							c10.7,21,19,36,21.6,39.6c1.7,2.3,3.6,4.2,3.6,4.2c2.2,2.2,3.2,3.3,5.2,4c4.3,1.9,9.1-1,14.1-3.9c2.9-1.9,4.8-3,4.9-4.8
							c0.1-2.2-3-3.9-3.6-4.2c-3,0.4-6,0.7-9.1,1.2c-0.7-0.4-2-1.3-3.3-2.6c0,0-1.9-1.7-3.6-4.2c-2-3.2-9.2-16.6-18-35.4
							c11.5-3,20.7-6.3,26.6-8.4c21.9-8.1,55-20.5,83.2-49.3c5.5-5.6,9.4-10.4,11.5-13.1c-0.1,3-0.1,7.5,0,12.7
							C677.7,738.2,678.3,739.6,679.4,740.6z"/>
					</defs>
					<clipPath id="SVGID_28_">
						<use xlink:href="#SVGID_27_"  style="overflow:visible;"/>
					</clipPath>
					<path id="BLUE_SUIT_1_" class="st17" d="M482,664.4l-37.9-80.9l-72.7,42.9l-5.3,252.3c51.6,22.2,120.5,46.1,204.4,60.5
						c86.8,15,162.5,14.7,219.8,10.4c-5.9-108.9-8.1-178.7-6.8-218.6c0.3-6.5,2.2-24.2-8.5-34.3c-11.7-11.1-32.1-7.3-42.5-4.8
						c-7.3-5.3-15-11.5-22.9-18.6c-9.1-8.2-17-16.3-23.8-23.9l-10.1-7.9l-1-7.5l-25.3-5.9l-53,15.8L482,664.4z"/>
				</g>
			</g>
		</g>
		<g>
			<g>
				<g>
					<defs>
						<path id="SVGID_29_" d="M679.4,740.6c0.7,0.7,4,3.5,18.3-2.6c6.5-2.7,15.8-7.5,26.9-15.8c0.4,6.3,1.3,11.8,2,16
							c1,6.5,2,9.9,4.9,12.4c0.7,0.7,3,2.4,5.2,2c1.6-0.4,3.7-2.3,5.5-12.4c0.7-4.5,2.3-16.6-1.7-38.3c-0.3-1.3,0.3-4.5-1.6-5.9
							c-2-1.4-5.2-0.4-6.5,0c-6.5,2.2-10.2,9.8-34.4,19.4c0-1.2-0.1-2.9-0.3-4.9c-0.7-18.9-1.3-30.1-2.7-37.3
							c-1.4-7.3-5.6-19-19.2-32.1c0.4-0.4,0.4-0.6,0.6-1c7.3-9.8,31.8,6,42.5-3.9c0.4-0.4,2.6-6.3,7.1-17.9
							c1.3-3.9,2.4-6.9,1.6-10.9c-0.4-1.3-1.2-4.9-3.9-7.2c-5.2-4.2-12.4-1.2-16.3-6.2c-0.1-0.1-0.3-0.4-0.3-0.4
							c-1.3-11.5-5.5-15.8-8.4-17.1c0-0.1-0.1-0.1-0.1-0.1l-15.4-5.2c-0.1-0.1-0.4-0.4-0.4-0.4l-18.1-37.7c-0.3-0.7-1.3-0.4-1.3,0.1
							l-6.5,48.7c-0.3,0.6-1,0.9-1.3,0.4l-30.8-30.4c-0.6-0.4-1.4-0.1-1.3,0.7c7.6,46.4,11.2,60.2,13,64.2c0.3,0.4,0.3,0.4,0.3,0.4
							c3.2,7.6,6.5,9.6,9.2,13.7c0.3,0.4,0.1,0.4-0.1,1c-1,8.2-13,20.3-31,30.7c-5.6,3.5-9.6,4.9-13,6.3c-7.1,2.4-12.7,3.2-15,3.5
							c0,0-27.9,3.5-72.6,20c-4,1.4-7.9,3.3-7.9,3.3c-0.4,0.3-1.3,0.7-2.2,1c-2.3,1.3-5.6,3-9.9,5.9c-8.9-4.6-18.1-9.1-27.1-13.7
							c-0.1,0-0.4-0.1-0.4-0.4c-10.5-23.8-21-47.7-31.5-71.6c-0.6-0.7-6.2-10.5-16.1-10.7c-0.7-0.1-5.9-0.1-10.2,3
							c-7.3,5.5-9.1,18.1-4.3,31.3c11.7,23.2,23.6,45.8,35.1,69c0.3,0.7,0.7,1.9,2,2.9c1.9,1.9,4,2.2,4.9,2.3
							c3.9,0.7,20.5,5.5,43.6,11.5c0.4,0.1,0.6,0.4,0.6,0.6c2.3,20,7.2,32.4,11.5,40.2s4.8,9.5,6,17.3c1,6.5,0.3,9.2,0.7,15.8
							c0.4,5.5,4,19.2,5,21.7c0.1,0.3,0.4,1,0.1,1.6c-0.4,0.9-1.3,1.2-1.6,1.3c-4.2,1.3-22.8,12.7-26.8,15.3
							c-4.3,2.7-8.1,5.6-8.1,8.9c0,0.9,0.4,1.4,0.4,1.9c4.8,10.7,11.4,19.3,16.3,28.4c0.7,1.3,1.6,3,3.6,4.2
							c3.7,2.2,8.4,1.2,10.7,0.3c0.6-0.7,1.3-2,1.3-3.2c-0.3-2.2-3-3-5.3-5.5c-1.4-1.3-3.2-3.7-4.3-7.3c-0.4-1.9-1-3.6-1.4-5.5
							c-0.7-2.4-1.4-4.9-2.3-7.2c0-0.4,0-1.2,0.3-2c0.4-1.3,1.4-1.9,2.2-2.3c2-1.2,6.6-3.3,13-6c8.9-3,15.1-6.2,17-8.1
							c0.9-0.9,1.3-1.9,1.3-1.9c1.3-2,1.2-4,1-4.8c-0.1-3,0.4-17.6,1.3-37.7c0.4-0.6,0.7-1,1.3-1.3c3.7-3.2,10.2-0.7,10.9-0.4
							c10.7,21,19,36,21.6,39.6c1.7,2.3,3.6,4.2,3.6,4.2c2.2,2.2,3.2,3.3,5.2,4c4.3,1.9,9.1-1,14.1-3.9c2.9-1.9,4.8-3,4.9-4.8
							c0.1-2.2-3-3.9-3.6-4.2c-3,0.4-6,0.7-9.1,1.2c-0.7-0.4-2-1.3-3.3-2.6c0,0-1.9-1.7-3.6-4.2c-2-3.2-9.2-16.6-18-35.4
							c11.5-3,20.7-6.3,26.6-8.4c21.9-8.1,55-20.5,83.2-49.3c5.5-5.6,9.4-10.4,11.5-13.1c-0.1,3-0.1,7.5,0,12.7
							C677.7,738.2,678.3,739.6,679.4,740.6z"/>
					</defs>
					<clipPath id="SVGID_30_">
						<use xlink:href="#SVGID_29_"  style="overflow:visible;"/>
					</clipPath>
					<path id="SKIN_SHADOW_1_1_" class="st18" d="M713.4,644c-11.1-0.4-22.2-1-33.3-1.3c-1.4-2.7-3-5.5-4.3-8.2
						c-0.4-3.7-0.9-7.3-1.3-10.9c-2-5.5-7.2-8.9-12.8-8.9c-5.3,0.1-10.1,3.5-12.1,8.5l-5.5,9.6l-9.2-2.2l-33.8-82.7l18.6-2.3
						l15.8,37l7.8,8.9l11.4-8.1l-1.7-57.6l8.8-1.2c0.4,2.9,0.7,6,1.2,8.8c0.7,16.9,2.3,30.4,4,39.9c1.3,7.9,2,11.2,3.5,15
						c1.3,3.6,6.8,17.7,20.6,26.1c6.9,4,8.5,2.9,15.3,7.1c4.3,2.4,9.8,7.3,14.4,17.1C718.3,640.2,715.9,642,713.4,644z"/>
				</g>
			</g>
		</g>
		<g>
			<g>
				<g>
					<defs>
						<path id="SVGID_31_" d="M679.4,740.6c0.7,0.7,4,3.5,18.3-2.6c6.5-2.7,15.8-7.5,26.9-15.8c0.4,6.3,1.3,11.8,2,16
							c1,6.5,2,9.9,4.9,12.4c0.7,0.7,3,2.4,5.2,2c1.6-0.4,3.7-2.3,5.5-12.4c0.7-4.5,2.3-16.6-1.7-38.3c-0.3-1.3,0.3-4.5-1.6-5.9
							c-2-1.4-5.2-0.4-6.5,0c-6.5,2.2-10.2,9.8-34.4,19.4c0-1.2-0.1-2.9-0.3-4.9c-0.7-18.9-1.3-30.1-2.7-37.3
							c-1.4-7.3-5.6-19-19.2-32.1c0.4-0.4,0.4-0.6,0.6-1c7.3-9.8,31.8,6,42.5-3.9c0.4-0.4,2.6-6.3,7.1-17.9
							c1.3-3.9,2.4-6.9,1.6-10.9c-0.4-1.3-1.2-4.9-3.9-7.2c-5.2-4.2-12.4-1.2-16.3-6.2c-0.1-0.1-0.3-0.4-0.3-0.4
							c-1.3-11.5-5.5-15.8-8.4-17.1c0-0.1-0.1-0.1-0.1-0.1l-15.4-5.2c-0.1-0.1-0.4-0.4-0.4-0.4l-18.1-37.7c-0.3-0.7-1.3-0.4-1.3,0.1
							l-6.5,48.7c-0.3,0.6-1,0.9-1.3,0.4l-30.8-30.4c-0.6-0.4-1.4-0.1-1.3,0.7c7.6,46.4,11.2,60.2,13,64.2c0.3,0.4,0.3,0.4,0.3,0.4
							c3.2,7.6,6.5,9.6,9.2,13.7c0.3,0.4,0.1,0.4-0.1,1c-1,8.2-13,20.3-31,30.7c-5.6,3.5-9.6,4.9-13,6.3c-7.1,2.4-12.7,3.2-15,3.5
							c0,0-27.9,3.5-72.6,20c-4,1.4-7.9,3.3-7.9,3.3c-0.4,0.3-1.3,0.7-2.2,1c-2.3,1.3-5.6,3-9.9,5.9c-8.9-4.6-18.1-9.1-27.1-13.7
							c-0.1,0-0.4-0.1-0.4-0.4c-10.5-23.8-21-47.7-31.5-71.6c-0.6-0.7-6.2-10.5-16.1-10.7c-0.7-0.1-5.9-0.1-10.2,3
							c-7.3,5.5-9.1,18.1-4.3,31.3c11.7,23.2,23.6,45.8,35.1,69c0.3,0.7,0.7,1.9,2,2.9c1.9,1.9,4,2.2,4.9,2.3
							c3.9,0.7,20.5,5.5,43.6,11.5c0.4,0.1,0.6,0.4,0.6,0.6c2.3,20,7.2,32.4,11.5,40.2s4.8,9.5,6,17.3c1,6.5,0.3,9.2,0.7,15.8
							c0.4,5.5,4,19.2,5,21.7c0.1,0.3,0.4,1,0.1,1.6c-0.4,0.9-1.3,1.2-1.6,1.3c-4.2,1.3-22.8,12.7-26.8,15.3
							c-4.3,2.7-8.1,5.6-8.1,8.9c0,0.9,0.4,1.4,0.4,1.9c4.8,10.7,11.4,19.3,16.3,28.4c0.7,1.3,1.6,3,3.6,4.2
							c3.7,2.2,8.4,1.2,10.7,0.3c0.6-0.7,1.3-2,1.3-3.2c-0.3-2.2-3-3-5.3-5.5c-1.4-1.3-3.2-3.7-4.3-7.3c-0.4-1.9-1-3.6-1.4-5.5
							c-0.7-2.4-1.4-4.9-2.3-7.2c0-0.4,0-1.2,0.3-2c0.4-1.3,1.4-1.9,2.2-2.3c2-1.2,6.6-3.3,13-6c8.9-3,15.1-6.2,17-8.1
							c0.9-0.9,1.3-1.9,1.3-1.9c1.3-2,1.2-4,1-4.8c-0.1-3,0.4-17.6,1.3-37.7c0.4-0.6,0.7-1,1.3-1.3c3.7-3.2,10.2-0.7,10.9-0.4
							c10.7,21,19,36,21.6,39.6c1.7,2.3,3.6,4.2,3.6,4.2c2.2,2.2,3.2,3.3,5.2,4c4.3,1.9,9.1-1,14.1-3.9c2.9-1.9,4.8-3,4.9-4.8
							c0.1-2.2-3-3.9-3.6-4.2c-3,0.4-6,0.7-9.1,1.2c-0.7-0.4-2-1.3-3.3-2.6c0,0-1.9-1.7-3.6-4.2c-2-3.2-9.2-16.6-18-35.4
							c11.5-3,20.7-6.3,26.6-8.4c21.9-8.1,55-20.5,83.2-49.3c5.5-5.6,9.4-10.4,11.5-13.1c-0.1,3-0.1,7.5,0,12.7
							C677.7,738.2,678.3,739.6,679.4,740.6z"/>
					</defs>
					<clipPath id="SVGID_32_">
						<use xlink:href="#SVGID_31_"  style="overflow:visible;"/>
					</clipPath>
					<path id="HL_4_1_" class="st19" d="M678.7,752.9c-2.3-5.9-5.5-13-9.8-21c5-10.2,10.2-20.6,15.1-30.8
						c-0.1,5.2-0.1,11.8,0.4,19.3c0.7,11.5,1.9,13.8,3.3,15.4c2.6,3,5.8,3,17.6,4.9c13.4,2.2,20.2,3.2,20.6,5.2
						c0.3,1,0.4,3.6-22.8,15.8c-12.8,6.8-16,6.3-18,5.2C684.1,766.1,683.5,765.2,678.7,752.9z"/>
				</g>
			</g>
		</g>
		<g>
			<g>
				<g>
					<defs>
						<path id="SVGID_33_" d="M679.4,740.6c0.7,0.7,4,3.5,18.3-2.6c6.5-2.7,15.8-7.5,26.9-15.8c0.4,6.3,1.3,11.8,2,16
							c1,6.5,2,9.9,4.9,12.4c0.7,0.7,3,2.4,5.2,2c1.6-0.4,3.7-2.3,5.5-12.4c0.7-4.5,2.3-16.6-1.7-38.3c-0.3-1.3,0.3-4.5-1.6-5.9
							c-2-1.4-5.2-0.4-6.5,0c-6.5,2.2-10.2,9.8-34.4,19.4c0-1.2-0.1-2.9-0.3-4.9c-0.7-18.9-1.3-30.1-2.7-37.3
							c-1.4-7.3-5.6-19-19.2-32.1c0.4-0.4,0.4-0.6,0.6-1c7.3-9.8,31.8,6,42.5-3.9c0.4-0.4,2.6-6.3,7.1-17.9
							c1.3-3.9,2.4-6.9,1.6-10.9c-0.4-1.3-1.2-4.9-3.9-7.2c-5.2-4.2-12.4-1.2-16.3-6.2c-0.1-0.1-0.3-0.4-0.3-0.4
							c-1.3-11.5-5.5-15.8-8.4-17.1c0-0.1-0.1-0.1-0.1-0.1l-15.4-5.2c-0.1-0.1-0.4-0.4-0.4-0.4l-18.1-37.7c-0.3-0.7-1.3-0.4-1.3,0.1
							l-6.5,48.7c-0.3,0.6-1,0.9-1.3,0.4l-30.8-30.4c-0.6-0.4-1.4-0.1-1.3,0.7c7.6,46.4,11.2,60.2,13,64.2c0.3,0.4,0.3,0.4,0.3,0.4
							c3.2,7.6,6.5,9.6,9.2,13.7c0.3,0.4,0.1,0.4-0.1,1c-1,8.2-13,20.3-31,30.7c-5.6,3.5-9.6,4.9-13,6.3c-7.1,2.4-12.7,3.2-15,3.5
							c0,0-27.9,3.5-72.6,20c-4,1.4-7.9,3.3-7.9,3.3c-0.4,0.3-1.3,0.7-2.2,1c-2.3,1.3-5.6,3-9.9,5.9c-8.9-4.6-18.1-9.1-27.1-13.7
							c-0.1,0-0.4-0.1-0.4-0.4c-10.5-23.8-21-47.7-31.5-71.6c-0.6-0.7-6.2-10.5-16.1-10.7c-0.7-0.1-5.9-0.1-10.2,3
							c-7.3,5.5-9.1,18.1-4.3,31.3c11.7,23.2,23.6,45.8,35.1,69c0.3,0.7,0.7,1.9,2,2.9c1.9,1.9,4,2.2,4.9,2.3
							c3.9,0.7,20.5,5.5,43.6,11.5c0.4,0.1,0.6,0.4,0.6,0.6c2.3,20,7.2,32.4,11.5,40.2s4.8,9.5,6,17.3c1,6.5,0.3,9.2,0.7,15.8
							c0.4,5.5,4,19.2,5,21.7c0.1,0.3,0.4,1,0.1,1.6c-0.4,0.9-1.3,1.2-1.6,1.3c-4.2,1.3-22.8,12.7-26.8,15.3
							c-4.3,2.7-8.1,5.6-8.1,8.9c0,0.9,0.4,1.4,0.4,1.9c4.8,10.7,11.4,19.3,16.3,28.4c0.7,1.3,1.6,3,3.6,4.2
							c3.7,2.2,8.4,1.2,10.7,0.3c0.6-0.7,1.3-2,1.3-3.2c-0.3-2.2-3-3-5.3-5.5c-1.4-1.3-3.2-3.7-4.3-7.3c-0.4-1.9-1-3.6-1.4-5.5
							c-0.7-2.4-1.4-4.9-2.3-7.2c0-0.4,0-1.2,0.3-2c0.4-1.3,1.4-1.9,2.2-2.3c2-1.2,6.6-3.3,13-6c8.9-3,15.1-6.2,17-8.1
							c0.9-0.9,1.3-1.9,1.3-1.9c1.3-2,1.2-4,1-4.8c-0.1-3,0.4-17.6,1.3-37.7c0.4-0.6,0.7-1,1.3-1.3c3.7-3.2,10.2-0.7,10.9-0.4
							c10.7,21,19,36,21.6,39.6c1.7,2.3,3.6,4.2,3.6,4.2c2.2,2.2,3.2,3.3,5.2,4c4.3,1.9,9.1-1,14.1-3.9c2.9-1.9,4.8-3,4.9-4.8
							c0.1-2.2-3-3.9-3.6-4.2c-3,0.4-6,0.7-9.1,1.2c-0.7-0.4-2-1.3-3.3-2.6c0,0-1.9-1.7-3.6-4.2c-2-3.2-9.2-16.6-18-35.4
							c11.5-3,20.7-6.3,26.6-8.4c21.9-8.1,55-20.5,83.2-49.3c5.5-5.6,9.4-10.4,11.5-13.1c-0.1,3-0.1,7.5,0,12.7
							C677.7,738.2,678.3,739.6,679.4,740.6z"/>
					</defs>
					<clipPath id="SVGID_34_">
						<use xlink:href="#SVGID_33_"  style="overflow:visible;"/>
					</clipPath>
					<path id="HL_3_1_" class="st20" d="M724.1,722.9c4.2-4.2,8.2-8.5,12.4-12.7c3.7,34,1.9,42.8-1,43.4c-1.4,0.4-4-1.3-5.5-2.6
						c-3-2.4-3.9-5.8-4-7.2C725.4,737,724.8,730,724.1,722.9z"/>
				</g>
			</g>
		</g>
		<g>
			<g>
				<g>
					<defs>
						<path id="SVGID_35_" d="M679.4,740.6c0.7,0.7,4,3.5,18.3-2.6c6.5-2.7,15.8-7.5,26.9-15.8c0.4,6.3,1.3,11.8,2,16
							c1,6.5,2,9.9,4.9,12.4c0.7,0.7,3,2.4,5.2,2c1.6-0.4,3.7-2.3,5.5-12.4c0.7-4.5,2.3-16.6-1.7-38.3c-0.3-1.3,0.3-4.5-1.6-5.9
							c-2-1.4-5.2-0.4-6.5,0c-6.5,2.2-10.2,9.8-34.4,19.4c0-1.2-0.1-2.9-0.3-4.9c-0.7-18.9-1.3-30.1-2.7-37.3
							c-1.4-7.3-5.6-19-19.2-32.1c0.4-0.4,0.4-0.6,0.6-1c7.3-9.8,31.8,6,42.5-3.9c0.4-0.4,2.6-6.3,7.1-17.9
							c1.3-3.9,2.4-6.9,1.6-10.9c-0.4-1.3-1.2-4.9-3.9-7.2c-5.2-4.2-12.4-1.2-16.3-6.2c-0.1-0.1-0.3-0.4-0.3-0.4
							c-1.3-11.5-5.5-15.8-8.4-17.1c0-0.1-0.1-0.1-0.1-0.1l-15.4-5.2c-0.1-0.1-0.4-0.4-0.4-0.4l-18.1-37.7c-0.3-0.7-1.3-0.4-1.3,0.1
							l-6.5,48.7c-0.3,0.6-1,0.9-1.3,0.4l-30.8-30.4c-0.6-0.4-1.4-0.1-1.3,0.7c7.6,46.4,11.2,60.2,13,64.2c0.3,0.4,0.3,0.4,0.3,0.4
							c3.2,7.6,6.5,9.6,9.2,13.7c0.3,0.4,0.1,0.4-0.1,1c-1,8.2-13,20.3-31,30.7c-5.6,3.5-9.6,4.9-13,6.3c-7.1,2.4-12.7,3.2-15,3.5
							c0,0-27.9,3.5-72.6,20c-4,1.4-7.9,3.3-7.9,3.3c-0.4,0.3-1.3,0.7-2.2,1c-2.3,1.3-5.6,3-9.9,5.9c-8.9-4.6-18.1-9.1-27.1-13.7
							c-0.1,0-0.4-0.1-0.4-0.4c-10.5-23.8-21-47.7-31.5-71.6c-0.6-0.7-6.2-10.5-16.1-10.7c-0.7-0.1-5.9-0.1-10.2,3
							c-7.3,5.5-9.1,18.1-4.3,31.3c11.7,23.2,23.6,45.8,35.1,69c0.3,0.7,0.7,1.9,2,2.9c1.9,1.9,4,2.2,4.9,2.3
							c3.9,0.7,20.5,5.5,43.6,11.5c0.4,0.1,0.6,0.4,0.6,0.6c2.3,20,7.2,32.4,11.5,40.2s4.8,9.5,6,17.3c1,6.5,0.3,9.2,0.7,15.8
							c0.4,5.5,4,19.2,5,21.7c0.1,0.3,0.4,1,0.1,1.6c-0.4,0.9-1.3,1.2-1.6,1.3c-4.2,1.3-22.8,12.7-26.8,15.3
							c-4.3,2.7-8.1,5.6-8.1,8.9c0,0.9,0.4,1.4,0.4,1.9c4.8,10.7,11.4,19.3,16.3,28.4c0.7,1.3,1.6,3,3.6,4.2
							c3.7,2.2,8.4,1.2,10.7,0.3c0.6-0.7,1.3-2,1.3-3.2c-0.3-2.2-3-3-5.3-5.5c-1.4-1.3-3.2-3.7-4.3-7.3c-0.4-1.9-1-3.6-1.4-5.5
							c-0.7-2.4-1.4-4.9-2.3-7.2c0-0.4,0-1.2,0.3-2c0.4-1.3,1.4-1.9,2.2-2.3c2-1.2,6.6-3.3,13-6c8.9-3,15.1-6.2,17-8.1
							c0.9-0.9,1.3-1.9,1.3-1.9c1.3-2,1.2-4,1-4.8c-0.1-3,0.4-17.6,1.3-37.7c0.4-0.6,0.7-1,1.3-1.3c3.7-3.2,10.2-0.7,10.9-0.4
							c10.7,21,19,36,21.6,39.6c1.7,2.3,3.6,4.2,3.6,4.2c2.2,2.2,3.2,3.3,5.2,4c4.3,1.9,9.1-1,14.1-3.9c2.9-1.9,4.8-3,4.9-4.8
							c0.1-2.2-3-3.9-3.6-4.2c-3,0.4-6,0.7-9.1,1.2c-0.7-0.4-2-1.3-3.3-2.6c0,0-1.9-1.7-3.6-4.2c-2-3.2-9.2-16.6-18-35.4
							c11.5-3,20.7-6.3,26.6-8.4c21.9-8.1,55-20.5,83.2-49.3c5.5-5.6,9.4-10.4,11.5-13.1c-0.1,3-0.1,7.5,0,12.7
							C677.7,738.2,678.3,739.6,679.4,740.6z"/>
					</defs>
					<clipPath id="SVGID_36_">
						<use xlink:href="#SVGID_35_"  style="overflow:visible;"/>
					</clipPath>
					<path id="HL_2_1_" class="st21" d="M538.2,789.7c4.5-0.7,8.9-1.3,13.4-2.2c4.3,12.1,11.4,27.1,23.6,41.5
						c2.9,3.2,5.6,6.3,8.4,8.9c0.7,2,1.3,3.9,2.2,5.9l-15.4,2L538.2,789.7z"/>
				</g>
			</g>
		</g>
		<g>
			<g>
				<g>
					<defs>
						<path id="SVGID_37_" d="M679.4,740.6c0.7,0.7,4,3.5,18.3-2.6c6.5-2.7,15.8-7.5,26.9-15.8c0.4,6.3,1.3,11.8,2,16
							c1,6.5,2,9.9,4.9,12.4c0.7,0.7,3,2.4,5.2,2c1.6-0.4,3.7-2.3,5.5-12.4c0.7-4.5,2.3-16.6-1.7-38.3c-0.3-1.3,0.3-4.5-1.6-5.9
							c-2-1.4-5.2-0.4-6.5,0c-6.5,2.2-10.2,9.8-34.4,19.4c0-1.2-0.1-2.9-0.3-4.9c-0.7-18.9-1.3-30.1-2.7-37.3
							c-1.4-7.3-5.6-19-19.2-32.1c0.4-0.4,0.4-0.6,0.6-1c7.3-9.8,31.8,6,42.5-3.9c0.4-0.4,2.6-6.3,7.1-17.9
							c1.3-3.9,2.4-6.9,1.6-10.9c-0.4-1.3-1.2-4.9-3.9-7.2c-5.2-4.2-12.4-1.2-16.3-6.2c-0.1-0.1-0.3-0.4-0.3-0.4
							c-1.3-11.5-5.5-15.8-8.4-17.1c0-0.1-0.1-0.1-0.1-0.1l-15.4-5.2c-0.1-0.1-0.4-0.4-0.4-0.4l-18.1-37.7c-0.3-0.7-1.3-0.4-1.3,0.1
							l-6.5,48.7c-0.3,0.6-1,0.9-1.3,0.4l-30.8-30.4c-0.6-0.4-1.4-0.1-1.3,0.7c7.6,46.4,11.2,60.2,13,64.2c0.3,0.4,0.3,0.4,0.3,0.4
							c3.2,7.6,6.5,9.6,9.2,13.7c0.3,0.4,0.1,0.4-0.1,1c-1,8.2-13,20.3-31,30.7c-5.6,3.5-9.6,4.9-13,6.3c-7.1,2.4-12.7,3.2-15,3.5
							c0,0-27.9,3.5-72.6,20c-4,1.4-7.9,3.3-7.9,3.3c-0.4,0.3-1.3,0.7-2.2,1c-2.3,1.3-5.6,3-9.9,5.9c-8.9-4.6-18.1-9.1-27.1-13.7
							c-0.1,0-0.4-0.1-0.4-0.4c-10.5-23.8-21-47.7-31.5-71.6c-0.6-0.7-6.2-10.5-16.1-10.7c-0.7-0.1-5.9-0.1-10.2,3
							c-7.3,5.5-9.1,18.1-4.3,31.3c11.7,23.2,23.6,45.8,35.1,69c0.3,0.7,0.7,1.9,2,2.9c1.9,1.9,4,2.2,4.9,2.3
							c3.9,0.7,20.5,5.5,43.6,11.5c0.4,0.1,0.6,0.4,0.6,0.6c2.3,20,7.2,32.4,11.5,40.2s4.8,9.5,6,17.3c1,6.5,0.3,9.2,0.7,15.8
							c0.4,5.5,4,19.2,5,21.7c0.1,0.3,0.4,1,0.1,1.6c-0.4,0.9-1.3,1.2-1.6,1.3c-4.2,1.3-22.8,12.7-26.8,15.3
							c-4.3,2.7-8.1,5.6-8.1,8.9c0,0.9,0.4,1.4,0.4,1.9c4.8,10.7,11.4,19.3,16.3,28.4c0.7,1.3,1.6,3,3.6,4.2
							c3.7,2.2,8.4,1.2,10.7,0.3c0.6-0.7,1.3-2,1.3-3.2c-0.3-2.2-3-3-5.3-5.5c-1.4-1.3-3.2-3.7-4.3-7.3c-0.4-1.9-1-3.6-1.4-5.5
							c-0.7-2.4-1.4-4.9-2.3-7.2c0-0.4,0-1.2,0.3-2c0.4-1.3,1.4-1.9,2.2-2.3c2-1.2,6.6-3.3,13-6c8.9-3,15.1-6.2,17-8.1
							c0.9-0.9,1.3-1.9,1.3-1.9c1.3-2,1.2-4,1-4.8c-0.1-3,0.4-17.6,1.3-37.7c0.4-0.6,0.7-1,1.3-1.3c3.7-3.2,10.2-0.7,10.9-0.4
							c10.7,21,19,36,21.6,39.6c1.7,2.3,3.6,4.2,3.6,4.2c2.2,2.2,3.2,3.3,5.2,4c4.3,1.9,9.1-1,14.1-3.9c2.9-1.9,4.8-3,4.9-4.8
							c0.1-2.2-3-3.9-3.6-4.2c-3,0.4-6,0.7-9.1,1.2c-0.7-0.4-2-1.3-3.3-2.6c0,0-1.9-1.7-3.6-4.2c-2-3.2-9.2-16.6-18-35.4
							c11.5-3,20.7-6.3,26.6-8.4c21.9-8.1,55-20.5,83.2-49.3c5.5-5.6,9.4-10.4,11.5-13.1c-0.1,3-0.1,7.5,0,12.7
							C677.7,738.2,678.3,739.6,679.4,740.6z"/>
					</defs>
					<clipPath id="SVGID_38_">
						<use xlink:href="#SVGID_37_"  style="overflow:visible;"/>
					</clipPath>
					<path id="HL_1_1_" class="st22" d="M397.4,624.8c1.3-3.2,5.2-12.4,10.7-12.7c5.5-0.1,9.6,8.4,12,13.3
						c22.3,47,23,75.9,41.6,84.1c1.3,0.6,9.1,3,24.3,7.9c8.5,2.6,13,4,16.4,8.4c2.2,2.6,2.6,4.6,4.8,15.4c4,20.5,3.9,21.3,5.5,25.8
						c4.3,10.9,7.8,8.9,9.8,17.6c1.7,7.1-0.4,15.3-1,26.1c-0.4,9.6,0.7,13-2.3,17.3c-1.9,2.6-4.2,3.9-6.3,5
						c-18.9,10.2-24.5,8.9-27.1,14.1c-3.5,7.2,3.5,17.7,9.1,26.5c1.7,2.6,3.9,4.6,3.9,4.6c0.6,0.4,1.3,1.3,3.5,2.6
						c5.3,3.6,6.5,3.5,7.2,4.8c0.7,1.4,0.4,3.9-3.9,8.6c-39.5-6.5-78.8-13.3-118.1-19.6l5.2-224.2
						C394.1,642,395.9,633.3,397.4,624.8z"/>
				</g>
			</g>
		</g>
	</g>
	<path id="NECK_BRACE_1_" class="st11" d="M656.1,633.3c9.9,0.1,16.9,5,19.3,6.8c0.4-0.3,3.3-1.9,4-5.2c0.7-3-1-6.8-4-8.8
		c-5.9-2.9-10.8-3.9-14.3-4.3c-5.2-0.7-11.4,0-18.1,2.3c-3,1-5.2,3.7-5.2,6.8c-0.1,3.9,2.6,5.6,3,6
		C643.4,635.8,648.8,633.3,656.1,633.3z"/>
	<path id="cat_wire_1_" class="st23" d="M623.9,623.8c1.4-1.3,10.5-8.9,10.2-20.7c-0.1-11.5-8.8-21-17.7-24.2
		c-12.2-4.3-18,5.8-35.9,3.3c-3.5-0.4-14.3-2.2-23.5-10.5c-1.4-1.3-15.8-15.1-12.7-34.1c2.9-16.9,18-28.8,33.6-31.3
		c22.2-3.3,37.3,14.1,38.2,15.1"/>
	<g id="cat_bag_1_">
		<g>
			<g>
				<g>
					<defs>
						<path id="SVGID_39_" d="M649.5,639.4c0.4-0.4,4.8-5.5,3.2-12.2c-1.4-6.9-7.8-9.6-8.2-9.8c-4.9-1-10.2-1.7-16-2.2
							c-18.3-1.3-33.8,1.7-45.4,5c-8.1,5.2-16.4,10.5-25.2,15.7c-13.7,8.2-27.1,15.3-39.8,21.6c-0.9,2.3-6,16.3,0.9,24.9
							c3.9,4.8,9.8,5.9,15.1,6.5c9.8,1.3,28.8,2.2,57.5-4c10.4-5.6,22.5-13.3,35-23.6C635.7,653.9,643.2,646.3,649.5,639.4z"/>
					</defs>
					<clipPath id="SVGID_40_">
						<use xlink:href="#SVGID_39_"  style="overflow:visible;"/>
					</clipPath>
					<polygon class="st24" points="586.3,600.1 507.5,665.4 531.8,675.4 593.9,675.4 653.1,626.1 653.1,604.1 					"/>
				</g>
			</g>
		</g>
		<g>
			<g>
				<g>
					<defs>
						<path id="SVGID_41_" d="M649.5,639.4c0.4-0.4,4.8-5.5,3.2-12.2c-1.4-6.9-7.8-9.6-8.2-9.8c-4.9-1-10.2-1.7-16-2.2
							c-18.3-1.3-33.8,1.7-45.4,5c-8.1,5.2-16.4,10.5-25.2,15.7c-13.7,8.2-27.1,15.3-39.8,21.6c-0.9,2.3-6,16.3,0.9,24.9
							c3.9,4.8,9.8,5.9,15.1,6.5c9.8,1.3,28.8,2.2,57.5-4c10.4-5.6,22.5-13.3,35-23.6C635.7,653.9,643.2,646.3,649.5,639.4z"/>
					</defs>
					<clipPath id="SVGID_42_">
						<use xlink:href="#SVGID_41_"  style="overflow:visible;"/>
					</clipPath>
					<path class="st25" d="M650.1,616.9c-13,12.4-29.4,25.5-49.8,37.3c-6.5,3.7-12.8,7.1-19,9.8c1.3,9.1,2.4,18.3,3.7,27.5l14.8,0.4
						l56.5-51.4l0.1-23.6H650.1z"/>
				</g>
			</g>
		</g>
		<g>
			<g>
				<g>
					<defs>
						<path id="SVGID_43_" d="M649.5,639.4c0.4-0.4,4.8-5.5,3.2-12.2c-1.4-6.9-7.8-9.6-8.2-9.8c-4.9-1-10.2-1.7-16-2.2
							c-18.3-1.3-33.8,1.7-45.4,5c-8.1,5.2-16.4,10.5-25.2,15.7c-13.7,8.2-27.1,15.3-39.8,21.6c-0.9,2.3-6,16.3,0.9,24.9
							c3.9,4.8,9.8,5.9,15.1,6.5c9.8,1.3,28.8,2.2,57.5-4c10.4-5.6,22.5-13.3,35-23.6C635.7,653.9,643.2,646.3,649.5,639.4z"/>
					</defs>
					<clipPath id="SVGID_44_">
						<use xlink:href="#SVGID_43_"  style="overflow:visible;"/>
					</clipPath>
					<path class="st26" d="M591.4,685.2l-10.4-21c-7.9,1.3-14.5,2-19.3,2.2c-18.4,1.3-32,2-43.1-5.9c-3.3-2.3-5.6-4.8-6.8-6.5
						c-2.2,0.7-12.4,4.5-14.8,12.7c-3,10.2,6.3,25.5,25.3,30.8C527.8,696.5,552,692.2,591.4,685.2z"/>
				</g>
			</g>
		</g>
	</g>
	<path id="cat_details_1_" class="st11" d="M609.4,510.5c1.3,1.3,1.9,3,1.3,4.5c-0.7,1.9-3,2.9-5,2.2c-0.1,0.4-0.3,1.4,0.1,2.6
		c0.4,1.3,1.2,2.2,1.4,2.4c2.6,1.6,5.2,3.3,7.8,4.9c0.9,0.1,2.3,0.3,4-0.3c4.5-1.4,5.6-6.5,5.8-7.2c0.6-2.7-0.1-5-0.6-6.2
		c-3.5-1.9-6.8-3.9-10.2-5.6c-0.7,0.1-1.7,0.4-2.7,1C610.5,509.6,609.9,510,609.4,510.5z"/>
</g>
</svg>
